<svg width="482" height="370" viewBox="0 0 482 370" fill="none" xmlns="http://www.w3.org/2000/svg">
<rect x="58" y="190" width="366" height="180" rx="18" fill="#022162"/>
<rect width="482" height="231" rx="30" fill="#0022EF"/>
<path d="M90 129V61L77.875 66.5L71.5 51.375L96.875 40.25C98.625 39.5833 100.083 39.25 101.25 39.25C103.667 39.25 105.625 40.0417 107.125 41.625C108.625 43.125 109.375 44.6667 109.375 46.25V129H90ZM126.852 54C127.268 49.75 128.393 46.625 130.227 44.625C132.06 42.5417 135.102 41.5 139.352 41.5H180.727V59H144.977L143.727 72.5C148.727 70.25 153.893 69.125 159.227 69.125C163.893 69.125 168.018 69.9583 171.602 71.625C175.185 73.2917 178.185 75.5417 180.602 78.375C183.018 81.125 184.81 84.2917 185.977 87.875C187.227 91.4583 187.852 95.125 187.852 98.875C187.852 102.875 187.143 106.833 185.727 110.75C184.31 114.667 182.185 118.167 179.352 121.25C176.518 124.333 172.977 126.833 168.727 128.75C164.477 130.583 159.518 131.5 153.852 131.5C149.935 131.5 146.31 131.042 142.977 130.125C139.643 129.208 136.602 127.958 133.852 126.375C131.102 124.708 128.602 122.75 126.352 120.5C124.185 118.25 122.268 115.833 120.602 113.25L135.352 102.5C137.185 105.417 139.602 108 142.602 110.25C145.602 112.5 149.227 113.625 153.477 113.625C155.81 113.625 157.852 113.25 159.602 112.5C161.435 111.75 162.935 110.792 164.102 109.625C165.352 108.375 166.268 106.958 166.852 105.375C167.518 103.792 167.852 102.167 167.852 100.5C167.852 98.8333 167.518 97.2083 166.852 95.625C166.268 93.9583 165.31 92.5 163.977 91.25C162.727 90 161.143 89 159.227 88.25C157.31 87.4167 155.102 87 152.602 87C151.102 87 149.602 87.1667 148.102 87.5C146.602 87.8333 145.06 88.4583 143.477 89.375C140.977 90.7083 138.477 91.375 135.977 91.375C134.393 91.375 132.852 91.125 131.352 90.625C129.935 90.125 128.685 89.375 127.602 88.375C126.518 87.2917 125.685 85.9583 125.102 84.375C124.602 82.7083 124.435 80.7917 124.602 78.625L126.852 54ZM196.559 85.125C196.559 78.7917 197.559 72.8333 199.559 67.25C201.559 61.6667 204.267 56.7917 207.684 52.625C211.184 48.375 215.225 45.0417 219.809 42.625C224.392 40.2083 229.309 39 234.559 39C239.809 39 244.725 40.2083 249.309 42.625C253.975 45.0417 258.017 48.375 261.434 52.625C264.934 56.7917 267.684 61.6667 269.684 67.25C271.684 72.8333 272.684 78.7917 272.684 85.125C272.684 91.4583 271.684 97.4583 269.684 103.125C267.684 108.792 264.934 113.708 261.434 117.875C258.017 122.042 253.975 125.375 249.309 127.875C244.725 130.292 239.809 131.5 234.559 131.5C229.309 131.5 224.392 130.292 219.809 127.875C215.225 125.375 211.184 122.042 207.684 117.875C204.267 113.708 201.559 108.792 199.559 103.125C197.559 97.4583 196.559 91.4583 196.559 85.125ZM216.559 85.125C216.559 89.125 217.017 92.875 217.934 96.375C218.934 99.875 220.225 102.917 221.809 105.5C223.475 108.083 225.392 110.125 227.559 111.625C229.725 113.125 232.059 113.875 234.559 113.875C237.059 113.875 239.392 113.125 241.559 111.625C243.809 110.125 245.725 108.083 247.309 105.5C248.975 102.917 250.267 99.875 251.184 96.375C252.184 92.875 252.684 89.125 252.684 85.125C252.684 81.125 252.184 77.4167 251.184 74C250.267 70.5 248.975 67.4583 247.309 64.875C245.725 62.2917 243.809 60.25 241.559 58.75C239.392 57.25 237.059 56.5 234.559 56.5C232.059 56.5 229.725 57.25 227.559 58.75C225.392 60.25 223.475 62.2917 221.809 64.875C220.225 67.4583 218.934 70.5 217.934 74C217.017 77.4167 216.559 81.125 216.559 85.125ZM285.704 114.16V129H279.683V105.03C279.683 104.538 279.773 104.085 279.955 103.671C280.136 103.23 280.395 102.855 280.732 102.544C281.068 102.207 281.457 101.948 281.897 101.767C282.337 101.586 282.804 101.495 283.296 101.495C284.927 101.495 286.222 102.544 287.181 104.642L294.484 120.492L301.749 104.642C302.707 102.544 304.002 101.495 305.634 101.495C306.152 101.495 306.618 101.586 307.032 101.767C307.473 101.948 307.861 102.207 308.198 102.544C308.534 102.855 308.793 103.23 308.975 103.671C309.156 104.085 309.247 104.538 309.247 105.03V129H303.225V114.16L296.932 127.718C296.699 128.236 296.349 128.637 295.883 128.922C295.442 129.181 294.976 129.311 294.484 129.311C293.992 129.311 293.513 129.181 293.047 128.922C292.606 128.663 292.257 128.262 291.998 127.718L285.704 114.16ZM331.831 101.806V107.245H319.166V112.606H329.655V118.045H319.166V123.561H331.831V129H317.029C314.439 129 313.144 127.705 313.144 125.115V105.691C313.144 103.101 314.439 101.806 317.029 101.806H331.831ZM359.507 112.878C360.595 112.878 361.41 113.163 361.954 113.732C362.524 114.302 362.809 115.118 362.809 116.18C362.809 118.045 362.434 119.806 361.682 121.463C360.931 123.121 359.921 124.571 358.652 125.814C357.383 127.032 355.894 128.003 354.185 128.728C352.501 129.427 350.714 129.777 348.823 129.777C346.881 129.777 345.042 129.401 343.307 128.65C341.572 127.873 340.057 126.837 338.762 125.542C337.467 124.247 336.444 122.719 335.693 120.958C334.941 119.197 334.566 117.332 334.566 115.364C334.566 113.396 334.941 111.544 335.693 109.809C336.444 108.073 337.467 106.558 338.762 105.263C340.082 103.942 341.61 102.906 343.346 102.155C345.081 101.404 346.933 101.029 348.901 101.029C350.973 101.029 352.903 101.443 354.69 102.272C356.503 103.101 358.069 104.227 359.39 105.652L354.651 109.614C353.9 108.889 353.032 108.319 352.048 107.905C351.09 107.491 350.041 107.283 348.901 107.283C347.787 107.283 346.739 107.504 345.754 107.944C344.77 108.358 343.903 108.928 343.152 109.653C342.426 110.378 341.844 111.233 341.403 112.217C340.989 113.201 340.782 114.25 340.782 115.364C340.782 116.478 340.989 117.54 341.403 118.55C341.844 119.534 342.426 120.401 343.152 121.153C343.903 121.878 344.77 122.46 345.754 122.901C346.739 123.315 347.787 123.522 348.901 123.522C349.756 123.522 350.572 123.393 351.349 123.134C352.152 122.875 352.877 122.512 353.524 122.046C354.198 121.58 354.78 121.036 355.272 120.414C355.79 119.767 356.205 119.068 356.516 118.317H349.911V112.878H359.507ZM373.007 119.249H379.727L376.386 111.052L373.007 119.249ZM372.929 104.525C373.084 104.137 373.266 103.761 373.473 103.399C373.68 103.036 373.913 102.712 374.172 102.427C374.457 102.142 374.768 101.922 375.104 101.767C375.467 101.586 375.894 101.495 376.386 101.495C376.879 101.495 377.293 101.586 377.63 101.767C377.992 101.922 378.303 102.142 378.562 102.427C378.847 102.712 379.08 103.036 379.261 103.399C379.468 103.761 379.65 104.137 379.805 104.525L390.411 129H383.729L381.981 124.688H370.792L369.005 129H362.323L372.929 104.525ZM392.885 109.226C392.885 107.672 393.17 106.377 393.74 105.341C394.336 104.305 395.087 103.463 395.993 102.816C396.926 102.168 397.936 101.715 399.024 101.456C400.137 101.171 401.199 101.029 402.209 101.029C404.152 101.029 405.848 101.443 407.298 102.272C408.775 103.075 409.992 104.098 410.95 105.341L406.366 108.682C405.9 108.138 405.304 107.659 404.579 107.245C403.88 106.83 403.077 106.623 402.17 106.623C401.808 106.623 401.432 106.662 401.044 106.74C400.655 106.817 400.306 106.96 399.995 107.167C399.684 107.348 399.425 107.594 399.218 107.905C399.011 108.216 398.907 108.591 398.907 109.032C398.907 109.498 399.024 109.912 399.257 110.275C399.516 110.612 399.865 110.935 400.306 111.246C400.746 111.531 401.264 111.803 401.86 112.062C402.481 112.321 403.167 112.593 403.919 112.878C404.67 113.188 405.472 113.551 406.327 113.965C407.208 114.354 408.011 114.872 408.736 115.519C409.487 116.141 410.108 116.931 410.601 117.889C411.093 118.847 411.339 120.039 411.339 121.463C411.339 123.017 411.041 124.325 410.445 125.387C409.849 126.449 409.085 127.304 408.153 127.951C407.221 128.599 406.198 129.065 405.084 129.35C403.97 129.635 402.883 129.777 401.821 129.777C399.723 129.777 397.91 129.324 396.382 128.417C394.854 127.511 393.507 126.358 392.342 124.96L396.926 121.619C397.444 122.292 398.13 122.888 398.985 123.406C399.839 123.924 400.811 124.183 401.898 124.183C402.287 124.183 402.675 124.144 403.064 124.066C403.478 123.963 403.854 123.82 404.19 123.639C404.527 123.432 404.799 123.173 405.006 122.862C405.213 122.525 405.317 122.124 405.317 121.658C405.317 121.14 405.188 120.699 404.929 120.337C404.67 119.948 404.32 119.599 403.88 119.288C403.439 118.977 402.908 118.692 402.287 118.433C401.691 118.148 401.057 117.876 400.383 117.617C399.554 117.281 398.687 116.918 397.78 116.529C396.9 116.115 396.097 115.597 395.372 114.976C394.647 114.354 394.051 113.59 393.585 112.683C393.119 111.751 392.885 110.599 392.885 109.226Z" fill="white"/>
<path d="M117.964 324.16H124.063C124.659 324.16 125.177 324.069 125.617 323.888C126.058 323.681 126.42 323.409 126.705 323.072C127.016 322.735 127.249 322.36 127.404 321.945C127.56 321.531 127.637 321.117 127.637 320.702C127.637 320.262 127.56 319.835 127.404 319.42C127.249 319.006 127.016 318.643 126.705 318.332C126.42 317.996 126.058 317.737 125.617 317.555C125.177 317.348 124.659 317.245 124.063 317.245H117.964V324.16ZM127.715 339L121.538 329.599H117.964V339H111.942V315.691C111.942 313.101 113.237 311.806 115.827 311.806H124.646C126.174 311.806 127.508 312.065 128.647 312.583C129.787 313.075 130.732 313.748 131.483 314.603C132.26 315.432 132.843 316.377 133.232 317.439C133.62 318.501 133.814 319.588 133.814 320.702C133.814 321.557 133.698 322.412 133.465 323.266C133.232 324.121 132.882 324.924 132.416 325.675C131.95 326.4 131.354 327.06 130.629 327.656C129.929 328.226 129.114 328.679 128.181 329.016L134.708 339H127.715ZM137.583 319.187C137.583 317.918 137.778 316.83 138.166 315.924C138.58 314.991 139.111 314.201 139.759 313.554C140.432 312.906 141.196 312.401 142.051 312.039C142.906 311.65 143.773 311.378 144.654 311.223V308.115H148.422V311.106C150.002 311.314 151.388 311.793 152.579 312.544C153.796 313.295 154.819 314.214 155.648 315.302L151.064 318.643C150.598 318.099 150.002 317.62 149.277 317.206C148.578 316.791 147.775 316.584 146.868 316.584C146.506 316.584 146.13 316.623 145.742 316.701C145.353 316.778 145.003 316.921 144.693 317.128C144.382 317.309 144.123 317.555 143.916 317.866C143.709 318.177 143.605 318.553 143.605 318.993C143.605 319.459 143.721 319.873 143.955 320.236C144.214 320.573 144.55 320.896 144.965 321.207C145.405 321.492 145.923 321.764 146.519 322.023C147.14 322.282 147.814 322.554 148.539 322.839C149.316 323.15 150.144 323.512 151.025 323.927C151.906 324.315 152.709 324.833 153.434 325.481C154.185 326.128 154.806 326.931 155.298 327.889C155.791 328.847 156.037 330.039 156.037 331.463C156.037 332.784 155.816 333.937 155.376 334.921C154.936 335.879 154.353 336.682 153.628 337.329C152.903 337.977 152.087 338.495 151.18 338.883C150.274 339.246 149.355 339.492 148.422 339.622V342.691H144.654V339.622C143.022 339.363 141.585 338.819 140.342 337.99C139.124 337.135 138.024 336.125 137.039 334.96L141.624 331.619C142.142 332.292 142.828 332.888 143.683 333.406C144.537 333.924 145.509 334.183 146.596 334.183C146.985 334.183 147.373 334.144 147.762 334.066C148.176 333.963 148.552 333.82 148.888 333.639C149.225 333.432 149.497 333.173 149.704 332.862C149.911 332.525 150.015 332.124 150.015 331.658C150.015 331.14 149.886 330.699 149.627 330.337C149.368 329.948 149.018 329.599 148.578 329.288C148.137 328.977 147.606 328.692 146.985 328.433C146.389 328.148 145.755 327.876 145.081 327.617C144.252 327.281 143.385 326.918 142.478 326.529C141.598 326.115 140.795 325.597 140.07 324.976C139.344 324.328 138.749 323.551 138.283 322.645C137.816 321.712 137.583 320.56 137.583 319.187ZM161.325 307.875C161.325 304.708 161.741 301.708 162.575 298.875C163.408 296.042 164.533 293.208 165.95 290.375C167.366 287.542 169.033 284.667 170.95 281.75C172.866 278.75 174.908 275.583 177.075 272.25L190.325 251.5H214.075L196.95 276.375C197.866 276.208 198.783 276.083 199.7 276C200.616 275.833 201.575 275.75 202.575 275.75C206.491 275.75 210.2 276.625 213.7 278.375C217.2 280.042 220.241 282.375 222.825 285.375C225.491 288.292 227.575 291.708 229.075 295.625C230.658 299.458 231.45 303.5 231.45 307.75C231.45 312.5 230.533 316.917 228.7 321C226.866 325.083 224.366 328.667 221.2 331.75C218.033 334.75 214.325 337.125 210.075 338.875C205.825 340.625 201.283 341.5 196.45 341.5C191.616 341.5 187.075 340.625 182.825 338.875C178.575 337.125 174.825 334.75 171.575 331.75C168.408 328.667 165.908 325.083 164.075 321C162.241 316.917 161.325 312.542 161.325 307.875ZM181.325 308.5C181.325 310.667 181.7 312.708 182.45 314.625C183.283 316.458 184.366 318.083 185.7 319.5C187.116 320.833 188.741 321.917 190.575 322.75C192.408 323.5 194.366 323.875 196.45 323.875C198.533 323.875 200.45 323.5 202.2 322.75C204.033 321.917 205.616 320.833 206.95 319.5C208.366 318.083 209.45 316.458 210.2 314.625C211.033 312.708 211.45 310.667 211.45 308.5C211.45 306.333 211.033 304.333 210.2 302.5C209.45 300.667 208.366 299.083 206.95 297.75C205.616 296.333 204.033 295.25 202.2 294.5C200.45 293.667 198.533 293.25 196.45 293.25C194.366 293.25 192.408 293.667 190.575 294.5C188.741 295.25 187.116 296.333 185.7 297.75C184.366 299.083 183.283 300.667 182.45 302.5C181.7 304.333 181.325 306.333 181.325 308.5ZM309.086 282.625C309.086 285.792 308.67 288.792 307.836 291.625C307.003 294.458 305.878 297.292 304.461 300.125C303.045 302.958 301.378 305.833 299.461 308.75C297.545 311.667 295.503 314.833 293.336 318.25L280.086 339H256.336L273.461 314.125C272.545 314.292 271.628 314.458 270.711 314.625C269.795 314.708 268.836 314.75 267.836 314.75C263.92 314.75 260.211 313.917 256.711 312.25C253.211 310.5 250.128 308.167 247.461 305.25C244.878 302.25 242.795 298.833 241.211 295C239.711 291.083 238.961 287 238.961 282.75C238.961 278 239.878 273.583 241.711 269.5C243.545 265.417 246.045 261.875 249.211 258.875C252.461 255.792 256.211 253.375 260.461 251.625C264.711 249.875 269.253 249 274.086 249C278.92 249 283.461 249.875 287.711 251.625C291.961 253.375 295.67 255.792 298.836 258.875C302.003 261.875 304.503 265.417 306.336 269.5C308.17 273.583 309.086 277.958 309.086 282.625ZM289.086 281.875C289.086 279.708 288.67 277.708 287.836 275.875C287.086 274.042 286.003 272.458 284.586 271.125C283.253 269.708 281.67 268.625 279.836 267.875C278.086 267.042 276.17 266.625 274.086 266.625C272.003 266.625 270.045 267.042 268.211 267.875C266.378 268.625 264.753 269.708 263.336 271.125C262.003 272.458 260.92 274.042 260.086 275.875C259.336 277.708 258.961 279.708 258.961 281.875C258.961 284.042 259.336 286.083 260.086 288C260.92 289.833 262.003 291.458 263.336 292.875C264.753 294.208 266.378 295.292 268.211 296.125C270.045 296.875 272.003 297.25 274.086 297.25C276.17 297.25 278.086 296.875 279.836 296.125C281.67 295.292 283.253 294.208 284.586 292.875C286.003 291.458 287.086 289.833 287.836 288C288.67 286.083 289.086 284.042 289.086 281.875ZM314.014 336.281C314.014 335.322 314.35 334.506 315.024 333.833C315.723 333.134 316.552 332.784 317.51 332.784C317.976 332.784 318.417 332.875 318.831 333.056C319.271 333.237 319.647 333.483 319.958 333.794C320.294 334.105 320.553 334.468 320.735 334.882C320.916 335.271 321.006 335.685 321.006 336.125C321.006 336.643 320.903 337.2 320.696 337.796C320.488 338.365 320.307 338.832 320.152 339.194L318.015 344.128H314.519L316.267 339.544C315.594 339.285 315.05 338.871 314.635 338.301C314.221 337.705 314.014 337.032 314.014 336.281ZM345.141 321.479C345.141 322.463 345.011 323.396 344.752 324.276C344.493 325.157 344.144 326.037 343.703 326.918C343.263 327.799 342.745 328.692 342.149 329.599C341.554 330.505 340.919 331.489 340.246 332.551L336.128 339H328.747L334.069 331.269C333.784 331.321 333.499 331.373 333.214 331.424C332.929 331.45 332.631 331.463 332.321 331.463C331.103 331.463 329.951 331.204 328.863 330.686C327.775 330.142 326.817 329.417 325.988 328.511C325.185 327.578 324.538 326.517 324.046 325.325C323.58 324.108 323.347 322.839 323.347 321.518C323.347 320.042 323.631 318.669 324.201 317.4C324.771 316.131 325.548 315.03 326.532 314.098C327.542 313.14 328.708 312.388 330.029 311.845C331.349 311.301 332.761 311.029 334.263 311.029C335.765 311.029 337.177 311.301 338.498 311.845C339.818 312.388 340.971 313.14 341.955 314.098C342.939 315.03 343.716 316.131 344.286 317.4C344.856 318.669 345.141 320.029 345.141 321.479ZM338.925 321.246C338.925 320.573 338.795 319.951 338.536 319.381C338.303 318.812 337.967 318.319 337.526 317.905C337.112 317.465 336.62 317.128 336.05 316.895C335.506 316.636 334.911 316.506 334.263 316.506C333.616 316.506 333.007 316.636 332.437 316.895C331.867 317.128 331.362 317.465 330.922 317.905C330.508 318.319 330.171 318.812 329.912 319.381C329.679 319.951 329.562 320.573 329.562 321.246C329.562 321.919 329.679 322.554 329.912 323.15C330.171 323.719 330.508 324.224 330.922 324.665C331.362 325.079 331.867 325.416 332.437 325.675C333.007 325.908 333.616 326.024 334.263 326.024C334.911 326.024 335.506 325.908 336.05 325.675C336.62 325.416 337.112 325.079 337.526 324.665C337.967 324.224 338.303 323.719 338.536 323.15C338.795 322.554 338.925 321.919 338.925 321.246ZM369.27 321.479C369.27 322.463 369.14 323.396 368.881 324.276C368.622 325.157 368.272 326.037 367.832 326.918C367.392 327.799 366.874 328.692 366.278 329.599C365.683 330.505 365.048 331.489 364.375 332.551L360.257 339H352.875L358.198 331.269C357.913 331.321 357.628 331.373 357.343 331.424C357.058 331.45 356.76 331.463 356.449 331.463C355.232 331.463 354.08 331.204 352.992 330.686C351.904 330.142 350.946 329.417 350.117 328.511C349.314 327.578 348.667 326.517 348.175 325.325C347.708 324.108 347.475 322.839 347.475 321.518C347.475 320.042 347.76 318.669 348.33 317.4C348.9 316.131 349.677 315.03 350.661 314.098C351.671 313.14 352.836 312.388 354.157 311.845C355.478 311.301 356.89 311.029 358.392 311.029C359.894 311.029 361.306 311.301 362.626 311.845C363.947 312.388 365.1 313.14 366.084 314.098C367.068 315.03 367.845 316.131 368.415 317.4C368.985 318.669 369.27 320.029 369.27 321.479ZM363.054 321.246C363.054 320.573 362.924 319.951 362.665 319.381C362.432 318.812 362.095 318.319 361.655 317.905C361.241 317.465 360.749 317.128 360.179 316.895C359.635 316.636 359.039 316.506 358.392 316.506C357.744 316.506 357.136 316.636 356.566 316.895C355.996 317.128 355.491 317.465 355.051 317.905C354.636 318.319 354.3 318.812 354.041 319.381C353.808 319.951 353.691 320.573 353.691 321.246C353.691 321.919 353.808 322.554 354.041 323.15C354.3 323.719 354.636 324.224 355.051 324.665C355.491 325.079 355.996 325.416 356.566 325.675C357.136 325.908 357.744 326.024 358.392 326.024C359.039 326.024 359.635 325.908 360.179 325.675C360.749 325.416 361.241 325.079 361.655 324.665C362.095 324.224 362.432 323.719 362.665 323.15C362.924 322.554 363.054 321.919 363.054 321.246Z" fill="white"/>
<path d="M163.308 183.036C163.308 182.388 163.176 181.764 162.912 181.164C162.672 180.564 162.336 180.036 161.904 179.58C161.472 179.124 160.956 178.764 160.356 178.5C159.78 178.236 159.168 178.104 158.52 178.104C157.872 178.104 157.248 178.236 156.648 178.5C156.072 178.764 155.568 179.124 155.136 179.58C154.704 180.036 154.356 180.564 154.092 181.164C153.852 181.764 153.732 182.388 153.732 183.036C153.732 183.708 153.852 184.356 154.092 184.98C154.356 185.58 154.704 186.108 155.136 186.564C155.568 187.02 156.072 187.38 156.648 187.644C157.248 187.908 157.872 188.04 158.52 188.04C159.168 188.04 159.78 187.908 160.356 187.644C160.956 187.38 161.472 187.02 161.904 186.564C162.336 186.108 162.672 185.58 162.912 184.98C163.176 184.356 163.308 183.708 163.308 183.036ZM168.42 183.072C168.42 184.416 168.18 185.676 167.7 186.852C167.244 188.028 166.62 189.06 165.828 189.948C165.036 190.836 164.1 191.532 163.02 192.036C161.94 192.54 160.788 192.792 159.564 192.792C158.508 192.792 157.512 192.6 156.576 192.216C155.64 191.856 154.788 191.34 154.02 190.668V199.2H148.62V174H154.02V175.476C154.788 174.804 155.64 174.288 156.576 173.928C157.512 173.544 158.508 173.352 159.564 173.352C160.788 173.352 161.94 173.604 163.02 174.108C164.1 174.612 165.036 175.308 165.828 176.196C166.62 177.084 167.244 178.116 167.7 179.292C168.18 180.468 168.42 181.728 168.42 183.072ZM169.868 183.072C169.868 181.728 170.12 180.468 170.624 179.292C171.152 178.116 171.86 177.084 172.748 176.196C173.66 175.308 174.716 174.612 175.916 174.108C177.116 173.604 178.4 173.352 179.768 173.352C181.136 173.352 182.42 173.604 183.62 174.108C184.82 174.612 185.864 175.308 186.752 176.196C187.664 177.084 188.372 178.116 188.876 179.292C189.404 180.468 189.668 181.728 189.668 183.072C189.668 184.416 189.404 185.676 188.876 186.852C188.372 188.028 187.664 189.06 186.752 189.948C185.864 190.836 184.82 191.532 183.62 192.036C182.42 192.54 181.136 192.792 179.768 192.792C178.4 192.792 177.116 192.54 175.916 192.036C174.716 191.532 173.66 190.836 172.748 189.948C171.86 189.06 171.152 188.028 170.624 186.852C170.12 185.676 169.868 184.416 169.868 183.072ZM174.98 183.036C174.98 183.708 175.1 184.356 175.34 184.98C175.604 185.58 175.952 186.108 176.384 186.564C176.816 187.02 177.32 187.38 177.896 187.644C178.496 187.908 179.12 188.04 179.768 188.04C180.416 188.04 181.028 187.908 181.604 187.644C182.204 187.38 182.72 187.02 183.152 186.564C183.584 186.108 183.92 185.58 184.16 184.98C184.424 184.356 184.556 183.708 184.556 183.036C184.556 182.388 184.424 181.764 184.16 181.164C183.92 180.564 183.584 180.036 183.152 179.58C182.72 179.124 182.204 178.764 181.604 178.5C181.028 178.236 180.416 178.104 179.768 178.104C179.12 178.104 178.496 178.236 177.896 178.5C177.32 178.764 176.816 179.124 176.384 179.58C175.952 180.036 175.604 180.564 175.34 181.164C175.1 181.764 174.98 182.388 174.98 183.036ZM202.191 178.464C200.631 178.464 199.443 178.896 198.627 179.76C197.811 180.624 197.403 181.776 197.403 183.216V192H192.003V174H197.403V175.98C197.907 175.14 198.615 174.504 199.527 174.072C200.439 173.64 201.327 173.424 202.191 173.424V178.464ZM215.586 183.036C215.586 183.708 215.706 184.356 215.946 184.98C216.21 185.58 216.558 186.108 216.99 186.564C217.422 187.02 217.926 187.38 218.502 187.644C219.102 187.908 219.726 188.04 220.374 188.04C221.022 188.04 221.634 187.908 222.21 187.644C222.81 187.38 223.326 187.02 223.758 186.564C224.19 186.108 224.526 185.58 224.766 184.98C225.03 184.356 225.162 183.708 225.162 183.036C225.162 182.388 225.03 181.764 224.766 181.164C224.526 180.564 224.19 180.036 223.758 179.58C223.326 179.124 222.81 178.764 222.21 178.5C221.634 178.236 221.022 178.104 220.374 178.104C219.726 178.104 219.102 178.236 218.502 178.5C217.926 178.764 217.422 179.124 216.99 179.58C216.558 180.036 216.21 180.564 215.946 181.164C215.706 181.764 215.586 182.388 215.586 183.036ZM210.474 183.072C210.474 181.728 210.702 180.468 211.158 179.292C211.638 178.116 212.274 177.084 213.066 176.196C213.858 175.308 214.794 174.612 215.874 174.108C216.954 173.604 218.106 173.352 219.33 173.352C220.386 173.352 221.382 173.544 222.318 173.928C223.254 174.288 224.106 174.804 224.874 175.476V174H230.274V192H224.874V190.668C224.106 191.34 223.254 191.856 222.318 192.216C221.382 192.6 220.386 192.792 219.33 192.792C218.106 192.792 216.954 192.54 215.874 192.036C214.794 191.532 213.858 190.836 213.066 189.948C212.274 189.06 211.638 188.028 211.158 186.852C210.702 185.676 210.474 184.416 210.474 183.072ZM248.21 183.036C248.21 182.388 248.078 181.764 247.814 181.164C247.574 180.564 247.238 180.036 246.806 179.58C246.374 179.124 245.858 178.764 245.258 178.5C244.682 178.236 244.07 178.104 243.422 178.104C242.774 178.104 242.15 178.236 241.55 178.5C240.974 178.764 240.47 179.124 240.038 179.58C239.606 180.036 239.258 180.564 238.994 181.164C238.754 181.764 238.634 182.388 238.634 183.036C238.634 183.708 238.754 184.356 238.994 184.98C239.258 185.58 239.606 186.108 240.038 186.564C240.47 187.02 240.974 187.38 241.55 187.644C242.15 187.908 242.774 188.04 243.422 188.04C244.07 188.04 244.682 187.908 245.258 187.644C245.858 187.38 246.374 187.02 246.806 186.564C247.238 186.108 247.574 185.58 247.814 184.98C248.078 184.356 248.21 183.708 248.21 183.036ZM253.322 183.072C253.322 184.416 253.082 185.676 252.602 186.852C252.146 188.028 251.522 189.06 250.73 189.948C249.938 190.836 249.002 191.532 247.922 192.036C246.842 192.54 245.69 192.792 244.466 192.792C243.41 192.792 242.414 192.6 241.478 192.216C240.542 191.856 239.69 191.34 238.922 190.668V199.2H233.522V174H238.922V175.476C239.69 174.804 240.542 174.288 241.478 173.928C242.414 173.544 243.41 173.352 244.466 173.352C245.69 173.352 246.842 173.604 247.922 174.108C249.002 174.612 249.938 175.308 250.73 176.196C251.522 177.084 252.146 178.116 252.602 179.292C253.082 180.468 253.322 181.728 253.322 183.072ZM268.847 181.164C268.511 180.252 267.947 179.508 267.155 178.932C266.387 178.332 265.499 178.032 264.491 178.032C263.507 178.032 262.619 178.332 261.827 178.932C261.059 179.508 260.507 180.252 260.171 181.164H268.847ZM260.099 184.728C260.435 185.712 261.023 186.528 261.863 187.176C262.703 187.8 263.651 188.112 264.707 188.112C265.475 188.112 266.183 187.932 266.831 187.572C267.503 187.188 268.055 186.684 268.487 186.06L273.239 187.788C272.375 189.3 271.187 190.512 269.675 191.424C268.187 192.336 266.519 192.792 264.671 192.792C263.303 192.792 262.019 192.54 260.819 192.036C259.619 191.532 258.563 190.836 257.651 189.948C256.763 189.06 256.055 188.028 255.527 186.852C255.023 185.676 254.771 184.416 254.771 183.072C254.771 181.728 255.023 180.468 255.527 179.292C256.055 178.116 256.763 177.084 257.651 176.196C258.563 175.308 259.619 174.612 260.819 174.108C262.019 173.604 263.303 173.352 264.671 173.352C265.943 173.352 267.143 173.58 268.271 174.036C269.423 174.468 270.431 175.08 271.295 175.872C272.183 176.64 272.903 177.552 273.455 178.608C274.007 179.64 274.355 180.768 274.499 181.992C274.595 182.832 274.391 183.504 273.887 184.008C273.407 184.488 272.675 184.728 271.691 184.728H260.099ZM289.866 182.244C289.866 181.716 289.77 181.224 289.578 180.768C289.386 180.312 289.11 179.916 288.75 179.58C288.414 179.22 288.018 178.944 287.562 178.752C287.106 178.56 286.614 178.464 286.086 178.464C285.558 178.464 285.054 178.56 284.574 178.752C284.118 178.944 283.722 179.22 283.386 179.58C283.05 179.916 282.774 180.312 282.558 180.768C282.366 181.224 282.27 181.716 282.27 182.244V192H276.87V174H282.27V175.332C282.966 174.732 283.746 174.264 284.61 173.928C285.498 173.592 286.434 173.424 287.418 173.424C288.498 173.424 289.506 173.628 290.442 174.036C291.402 174.444 292.242 175.008 292.962 175.728C293.682 176.448 294.246 177.288 294.654 178.248C295.062 179.184 295.266 180.192 295.266 181.272V192H289.866V182.244ZM302.703 183.036C302.703 183.708 302.823 184.356 303.063 184.98C303.327 185.58 303.675 186.108 304.107 186.564C304.539 187.02 305.043 187.38 305.619 187.644C306.219 187.908 306.843 188.04 307.491 188.04C308.139 188.04 308.751 187.908 309.327 187.644C309.927 187.38 310.443 187.02 310.875 186.564C311.307 186.108 311.643 185.58 311.883 184.98C312.147 184.356 312.279 183.708 312.279 183.036C312.279 182.388 312.147 181.764 311.883 181.164C311.643 180.564 311.307 180.036 310.875 179.58C310.443 179.124 309.927 178.764 309.327 178.5C308.751 178.236 308.139 178.104 307.491 178.104C306.843 178.104 306.219 178.236 305.619 178.5C305.043 178.764 304.539 179.124 304.107 179.58C303.675 180.036 303.327 180.564 303.063 181.164C302.823 181.764 302.703 182.388 302.703 183.036ZM297.591 183.072C297.591 181.728 297.819 180.468 298.275 179.292C298.755 178.116 299.391 177.084 300.183 176.196C300.975 175.308 301.911 174.612 302.991 174.108C304.071 173.604 305.223 173.352 306.447 173.352C307.503 173.352 308.499 173.544 309.435 173.928C310.371 174.288 311.223 174.804 311.991 175.476V174H317.391V192H311.991V190.668C311.223 191.34 310.371 191.856 309.435 192.216C308.499 192.6 307.503 192.792 306.447 192.792C305.223 192.792 304.071 192.54 302.991 192.036C301.911 191.532 300.975 190.836 300.183 189.948C299.391 189.06 298.755 188.028 298.275 186.852C297.819 185.676 297.591 184.416 297.591 183.072ZM319.884 179.04C319.884 177.96 320.1 177.06 320.532 176.34C320.988 175.62 321.564 175.044 322.26 174.612C322.956 174.156 323.724 173.832 324.564 173.64C325.404 173.448 326.208 173.352 326.976 173.352C328.488 173.352 329.808 173.664 330.936 174.288C332.088 174.888 333.036 175.644 333.78 176.556L329.784 179.22C329.448 178.812 329.064 178.476 328.632 178.212C328.224 177.948 327.732 177.816 327.156 177.816C326.748 177.816 326.328 177.912 325.896 178.104C325.488 178.272 325.284 178.572 325.284 179.004C325.284 179.436 325.536 179.784 326.04 180.048C326.544 180.288 327.12 180.528 327.768 180.768C328.512 181.032 329.244 181.32 329.964 181.632C330.708 181.92 331.368 182.304 331.944 182.784C332.544 183.24 333.024 183.804 333.384 184.476C333.744 185.124 333.924 185.94 333.924 186.924C333.924 188.004 333.696 188.916 333.24 189.66C332.808 190.404 332.244 191.004 331.548 191.46C330.852 191.916 330.084 192.24 329.244 192.432C328.404 192.624 327.588 192.72 326.796 192.72C325.164 192.72 323.748 192.384 322.548 191.712C321.348 191.04 320.292 190.2 319.38 189.192L323.34 186.348C323.748 186.828 324.228 187.26 324.78 187.644C325.356 188.028 325.992 188.22 326.688 188.22C327.072 188.22 327.468 188.136 327.876 187.968C328.308 187.776 328.524 187.452 328.524 186.996C328.524 186.516 328.26 186.132 327.732 185.844C327.204 185.556 326.46 185.244 325.5 184.908C324.828 184.644 324.156 184.368 323.484 184.08C322.812 183.792 322.212 183.432 321.684 183C321.156 182.544 320.724 182.004 320.388 181.38C320.052 180.732 319.884 179.952 319.884 179.04Z" fill="white"/>
</svg>
