<svg width="482" height="370" viewBox="0 0 482 370" fill="none" xmlns="http://www.w3.org/2000/svg">
<rect x="58" y="190" width="366" height="180" rx="18" fill="#022162"/>
<rect width="482" height="231" rx="30" fill="#0022EF"/>
<path d="M121.964 324.16H128.063C128.659 324.16 129.177 324.069 129.617 323.888C130.058 323.681 130.42 323.409 130.705 323.072C131.016 322.735 131.249 322.36 131.404 321.945C131.56 321.531 131.637 321.117 131.637 320.702C131.637 320.262 131.56 319.835 131.404 319.42C131.249 319.006 131.016 318.643 130.705 318.332C130.42 317.996 130.058 317.737 129.617 317.555C129.177 317.348 128.659 317.245 128.063 317.245H121.964V324.16ZM131.715 339L125.538 329.599H121.964V339H115.942V315.691C115.942 313.101 117.237 311.806 119.827 311.806H128.646C130.174 311.806 131.508 312.065 132.647 312.583C133.787 313.075 134.732 313.748 135.483 314.603C136.26 315.432 136.843 316.377 137.232 317.439C137.62 318.501 137.814 319.588 137.814 320.702C137.814 321.557 137.698 322.412 137.465 323.266C137.232 324.121 136.882 324.924 136.416 325.675C135.95 326.4 135.354 327.06 134.629 327.656C133.929 328.226 133.114 328.679 132.181 329.016L138.708 339H131.715ZM141.583 319.187C141.583 317.918 141.778 316.83 142.166 315.924C142.58 314.991 143.111 314.201 143.759 313.554C144.432 312.906 145.196 312.401 146.051 312.039C146.906 311.65 147.773 311.378 148.654 311.223V308.115H152.422V311.106C154.002 311.314 155.388 311.793 156.579 312.544C157.796 313.295 158.819 314.214 159.648 315.302L155.064 318.643C154.598 318.099 154.002 317.62 153.277 317.206C152.578 316.791 151.775 316.584 150.868 316.584C150.506 316.584 150.13 316.623 149.742 316.701C149.353 316.778 149.003 316.921 148.693 317.128C148.382 317.309 148.123 317.555 147.916 317.866C147.709 318.177 147.605 318.553 147.605 318.993C147.605 319.459 147.721 319.873 147.955 320.236C148.214 320.573 148.55 320.896 148.965 321.207C149.405 321.492 149.923 321.764 150.519 322.023C151.14 322.282 151.814 322.554 152.539 322.839C153.316 323.15 154.144 323.512 155.025 323.927C155.906 324.315 156.709 324.833 157.434 325.481C158.185 326.128 158.806 326.931 159.298 327.889C159.791 328.847 160.037 330.039 160.037 331.463C160.037 332.784 159.816 333.937 159.376 334.921C158.936 335.879 158.353 336.682 157.628 337.329C156.903 337.977 156.087 338.495 155.18 338.883C154.274 339.246 153.355 339.492 152.422 339.622V342.691H148.654V339.622C147.022 339.363 145.585 338.819 144.342 337.99C143.124 337.135 142.024 336.125 141.039 334.96L145.624 331.619C146.142 332.292 146.828 332.888 147.683 333.406C148.537 333.924 149.509 334.183 150.596 334.183C150.985 334.183 151.373 334.144 151.762 334.066C152.176 333.963 152.552 333.82 152.888 333.639C153.225 333.432 153.497 333.173 153.704 332.862C153.911 332.525 154.015 332.124 154.015 331.658C154.015 331.14 153.886 330.699 153.627 330.337C153.368 329.948 153.018 329.599 152.578 329.288C152.137 328.977 151.606 328.692 150.985 328.433C150.389 328.148 149.755 327.876 149.081 327.617C148.252 327.281 147.385 326.918 146.478 326.529C145.598 326.115 144.795 325.597 144.07 324.976C143.344 324.328 142.749 323.551 142.283 322.645C141.816 321.712 141.583 320.56 141.583 319.187ZM219.075 251.5C221.158 251.5 222.95 252 224.45 253C225.95 253.917 227.033 255.167 227.7 256.75C228.366 258.333 228.616 260.167 228.45 262.25C228.366 264.333 227.741 266.5 226.575 268.75L190.7 339H167.825L205.825 269H166.075V251.5H219.075ZM306.983 282.625C306.983 285.792 306.566 288.792 305.733 291.625C304.9 294.458 303.775 297.292 302.358 300.125C300.941 302.958 299.275 305.833 297.358 308.75C295.441 311.667 293.4 314.833 291.233 318.25L277.983 339H254.233L271.358 314.125C270.441 314.292 269.525 314.458 268.608 314.625C267.691 314.708 266.733 314.75 265.733 314.75C261.816 314.75 258.108 313.917 254.608 312.25C251.108 310.5 248.025 308.167 245.358 305.25C242.775 302.25 240.691 298.833 239.108 295C237.608 291.083 236.858 287 236.858 282.75C236.858 278 237.775 273.583 239.608 269.5C241.441 265.417 243.941 261.875 247.108 258.875C250.358 255.792 254.108 253.375 258.358 251.625C262.608 249.875 267.15 249 271.983 249C276.816 249 281.358 249.875 285.608 251.625C289.858 253.375 293.566 255.792 296.733 258.875C299.9 261.875 302.4 265.417 304.233 269.5C306.066 273.583 306.983 277.958 306.983 282.625ZM286.983 281.875C286.983 279.708 286.566 277.708 285.733 275.875C284.983 274.042 283.9 272.458 282.483 271.125C281.15 269.708 279.566 268.625 277.733 267.875C275.983 267.042 274.066 266.625 271.983 266.625C269.9 266.625 267.941 267.042 266.108 267.875C264.275 268.625 262.65 269.708 261.233 271.125C259.9 272.458 258.816 274.042 257.983 275.875C257.233 277.708 256.858 279.708 256.858 281.875C256.858 284.042 257.233 286.083 257.983 288C258.816 289.833 259.9 291.458 261.233 292.875C262.65 294.208 264.275 295.292 266.108 296.125C267.941 296.875 269.9 297.25 271.983 297.25C274.066 297.25 275.983 296.875 277.733 296.125C279.566 295.292 281.15 294.208 282.483 292.875C283.9 291.458 284.983 289.833 285.733 288C286.566 286.083 286.983 284.042 286.983 281.875ZM311.91 336.281C311.91 335.322 312.247 334.506 312.92 333.833C313.619 333.134 314.448 332.784 315.407 332.784C315.873 332.784 316.313 332.875 316.727 333.056C317.168 333.237 317.543 333.483 317.854 333.794C318.191 334.105 318.45 334.468 318.631 334.882C318.812 335.271 318.903 335.685 318.903 336.125C318.903 336.643 318.799 337.2 318.592 337.796C318.385 338.365 318.204 338.832 318.048 339.194L315.912 344.128H312.415L314.163 339.544C313.49 339.285 312.946 338.871 312.532 338.301C312.117 337.705 311.91 337.032 311.91 336.281ZM343.037 321.479C343.037 322.463 342.908 323.396 342.649 324.276C342.39 325.157 342.04 326.037 341.6 326.918C341.16 327.799 340.642 328.692 340.046 329.599C339.45 330.505 338.816 331.489 338.142 332.551L334.024 339H326.643L331.965 331.269C331.68 331.321 331.396 331.373 331.111 331.424C330.826 331.45 330.528 331.463 330.217 331.463C329 331.463 327.847 331.204 326.76 330.686C325.672 330.142 324.714 329.417 323.885 328.511C323.082 327.578 322.434 326.517 321.942 325.325C321.476 324.108 321.243 322.839 321.243 321.518C321.243 320.042 321.528 318.669 322.098 317.4C322.667 316.131 323.444 315.03 324.429 314.098C325.439 313.14 326.604 312.388 327.925 311.845C329.246 311.301 330.657 311.029 332.16 311.029C333.662 311.029 335.073 311.301 336.394 311.845C337.715 312.388 338.867 313.14 339.852 314.098C340.836 315.03 341.613 316.131 342.183 317.4C342.752 318.669 343.037 320.029 343.037 321.479ZM336.821 321.246C336.821 320.573 336.692 319.951 336.433 319.381C336.2 318.812 335.863 318.319 335.423 317.905C335.008 317.465 334.516 317.128 333.947 316.895C333.403 316.636 332.807 316.506 332.16 316.506C331.512 316.506 330.903 316.636 330.334 316.895C329.764 317.128 329.259 317.465 328.819 317.905C328.404 318.319 328.067 318.812 327.808 319.381C327.575 319.951 327.459 320.573 327.459 321.246C327.459 321.919 327.575 322.554 327.808 323.15C328.067 323.719 328.404 324.224 328.819 324.665C329.259 325.079 329.764 325.416 330.334 325.675C330.903 325.908 331.512 326.024 332.16 326.024C332.807 326.024 333.403 325.908 333.947 325.675C334.516 325.416 335.008 325.079 335.423 324.665C335.863 324.224 336.2 323.719 336.433 323.15C336.692 322.554 336.821 321.919 336.821 321.246ZM367.166 321.479C367.166 322.463 367.037 323.396 366.778 324.276C366.519 325.157 366.169 326.037 365.729 326.918C365.288 327.799 364.77 328.692 364.175 329.599C363.579 330.505 362.944 331.489 362.271 332.551L358.153 339H350.772L356.094 331.269C355.809 331.321 355.524 331.373 355.239 331.424C354.955 331.45 354.657 331.463 354.346 331.463C353.129 331.463 351.976 331.204 350.888 330.686C349.801 330.142 348.842 329.417 348.014 328.511C347.211 327.578 346.563 326.517 346.071 325.325C345.605 324.108 345.372 322.839 345.372 321.518C345.372 320.042 345.657 318.669 346.226 317.4C346.796 316.131 347.573 315.03 348.557 314.098C349.567 313.14 350.733 312.388 352.054 311.845C353.375 311.301 354.786 311.029 356.288 311.029C357.791 311.029 359.202 311.301 360.523 311.845C361.844 312.388 362.996 313.14 363.98 314.098C364.965 315.03 365.742 316.131 366.311 317.4C366.881 318.669 367.166 320.029 367.166 321.479ZM360.95 321.246C360.95 320.573 360.821 319.951 360.562 319.381C360.329 318.812 359.992 318.319 359.552 317.905C359.137 317.465 358.645 317.128 358.075 316.895C357.532 316.636 356.936 316.506 356.288 316.506C355.641 316.506 355.032 316.636 354.462 316.895C353.893 317.128 353.388 317.465 352.947 317.905C352.533 318.319 352.196 318.812 351.937 319.381C351.704 319.951 351.588 320.573 351.588 321.246C351.588 321.919 351.704 322.554 351.937 323.15C352.196 323.719 352.533 324.224 352.947 324.665C353.388 325.079 353.893 325.416 354.462 325.675C355.032 325.908 355.641 326.024 356.288 326.024C356.936 326.024 357.532 325.908 358.075 325.675C358.645 325.416 359.137 325.079 359.552 324.665C359.992 324.224 360.329 323.719 360.562 323.15C360.821 322.554 360.95 321.919 360.95 321.246Z" fill="white"/>
<path d="M76.5 93.125V77.375H87.125C91.0417 77.375 93.9583 76.2917 95.875 74.125C97.7917 71.9583 98.75 69.625 98.75 67.125C98.75 64.5417 97.75 62.2083 95.75 60.125C93.8333 57.9583 90.9583 56.875 87.125 56.875C83.2917 56.875 79.8333 58 76.75 60.25C73.75 62.5 71.2917 65.0833 69.375 68L54.625 57.25C56.375 54.6667 58.375 52.25 60.625 50C62.875 47.75 65.3333 45.8333 68 44.25C70.75 42.5833 73.7083 41.2917 76.875 40.375C80.125 39.4583 83.5417 39 87.125 39C90.5417 39 94.0417 39.5 97.625 40.5C101.292 41.4167 104.625 42.9167 107.625 45C110.625 47.0833 113.083 49.8333 115 53.25C117 56.5833 118 60.625 118 65.375C118 69.375 117.125 73 115.375 76.25C113.625 79.4167 111.292 82.2083 108.375 84.625C112.125 87.0417 115.083 89.9583 117.25 93.375C119.417 96.7083 120.5 100.625 120.5 105.125C120.5 109.958 119.458 114.042 117.375 117.375C115.375 120.708 112.792 123.417 109.625 125.5C106.458 127.583 102.958 129.083 99.125 130C95.2917 131 91.625 131.5 88.125 131.5C84.2917 131.5 80.6667 131.042 77.25 130.125C73.8333 129.208 70.6667 127.958 67.75 126.375C64.9167 124.708 62.2917 122.75 59.875 120.5C57.5417 118.25 55.5 115.833 53.75 113.25L68.5 102.5C70.5833 105.417 73.3333 108 76.75 110.25C80.1667 112.5 84.0417 113.625 88.375 113.625C92.625 113.625 95.8333 112.583 98 110.5C100.167 108.417 101.25 106.083 101.25 103.5C101.25 102.25 100.958 101 100.375 99.75C99.875 98.5 99.0417 97.4167 97.875 96.5C96.7917 95.5 95.4167 94.7083 93.75 94.125C92.0833 93.4583 90.125 93.125 87.875 93.125H76.5ZM129.219 85.125C129.219 78.7917 130.219 72.8333 132.219 67.25C134.219 61.6667 136.927 56.7917 140.344 52.625C143.844 48.375 147.885 45.0417 152.469 42.625C157.052 40.2083 161.969 39 167.219 39C172.469 39 177.385 40.2083 181.969 42.625C186.635 45.0417 190.677 48.375 194.094 52.625C197.594 56.7917 200.344 61.6667 202.344 67.25C204.344 72.8333 205.344 78.7917 205.344 85.125C205.344 91.4583 204.344 97.4583 202.344 103.125C200.344 108.792 197.594 113.708 194.094 117.875C190.677 122.042 186.635 125.375 181.969 127.875C177.385 130.292 172.469 131.5 167.219 131.5C161.969 131.5 157.052 130.292 152.469 127.875C147.885 125.375 143.844 122.042 140.344 117.875C136.927 113.708 134.219 108.792 132.219 103.125C130.219 97.4583 129.219 91.4583 129.219 85.125ZM149.219 85.125C149.219 89.125 149.677 92.875 150.594 96.375C151.594 99.875 152.885 102.917 154.469 105.5C156.135 108.083 158.052 110.125 160.219 111.625C162.385 113.125 164.719 113.875 167.219 113.875C169.719 113.875 172.052 113.125 174.219 111.625C176.469 110.125 178.385 108.083 179.969 105.5C181.635 102.917 182.927 99.875 183.844 96.375C184.844 92.875 185.344 89.125 185.344 85.125C185.344 81.125 184.844 77.4167 183.844 74C182.927 70.5 181.635 67.4583 179.969 64.875C178.385 62.2917 176.469 60.25 174.219 58.75C172.052 57.25 169.719 56.5 167.219 56.5C164.719 56.5 162.385 57.25 160.219 58.75C158.052 60.25 156.135 62.2917 154.469 64.875C152.885 67.4583 151.594 70.5 150.594 74C149.677 77.4167 149.219 81.125 149.219 85.125ZM215.4 85.125C215.4 78.7917 216.4 72.8333 218.4 67.25C220.4 61.6667 223.109 56.7917 226.525 52.625C230.025 48.375 234.067 45.0417 238.65 42.625C243.234 40.2083 248.15 39 253.4 39C258.65 39 263.567 40.2083 268.15 42.625C272.817 45.0417 276.859 48.375 280.275 52.625C283.775 56.7917 286.525 61.6667 288.525 67.25C290.525 72.8333 291.525 78.7917 291.525 85.125C291.525 91.4583 290.525 97.4583 288.525 103.125C286.525 108.792 283.775 113.708 280.275 117.875C276.859 122.042 272.817 125.375 268.15 127.875C263.567 130.292 258.65 131.5 253.4 131.5C248.15 131.5 243.234 130.292 238.65 127.875C234.067 125.375 230.025 122.042 226.525 117.875C223.109 113.708 220.4 108.792 218.4 103.125C216.4 97.4583 215.4 91.4583 215.4 85.125ZM235.4 85.125C235.4 89.125 235.859 92.875 236.775 96.375C237.775 99.875 239.067 102.917 240.65 105.5C242.317 108.083 244.234 110.125 246.4 111.625C248.567 113.125 250.9 113.875 253.4 113.875C255.9 113.875 258.234 113.125 260.4 111.625C262.65 110.125 264.567 108.083 266.15 105.5C267.817 102.917 269.109 99.875 270.025 96.375C271.025 92.875 271.525 89.125 271.525 85.125C271.525 81.125 271.025 77.4167 270.025 74C269.109 70.5 267.817 67.4583 266.15 64.875C264.567 62.2917 262.65 60.25 260.4 58.75C258.234 57.25 255.9 56.5 253.4 56.5C250.9 56.5 248.567 57.25 246.4 58.75C244.234 60.25 242.317 62.2917 240.65 64.875C239.067 67.4583 237.775 70.5 236.775 74C235.859 77.4167 235.4 81.125 235.4 85.125ZM304.546 114.16V129H298.524V105.03C298.524 104.538 298.615 104.085 298.796 103.671C298.978 103.23 299.237 102.855 299.573 102.544C299.91 102.207 300.299 101.948 300.739 101.767C301.179 101.586 301.645 101.495 302.137 101.495C303.769 101.495 305.064 102.544 306.022 104.642L313.326 120.492L320.591 104.642C321.549 102.544 322.844 101.495 324.476 101.495C324.994 101.495 325.46 101.586 325.874 101.767C326.314 101.948 326.703 102.207 327.04 102.544C327.376 102.855 327.635 103.23 327.817 103.671C327.998 104.085 328.089 104.538 328.089 105.03V129H322.067V114.16L315.773 127.718C315.54 128.236 315.191 128.637 314.724 128.922C314.284 129.181 313.818 129.311 313.326 129.311C312.834 129.311 312.355 129.181 311.889 128.922C311.448 128.663 311.099 128.262 310.84 127.718L304.546 114.16ZM350.672 101.806V107.245H338.008V112.606H348.497V118.045H338.008V123.561H350.672V129H335.871C333.281 129 331.986 127.705 331.986 125.115V105.691C331.986 103.101 333.281 101.806 335.871 101.806H350.672ZM378.349 112.878C379.436 112.878 380.252 113.163 380.796 113.732C381.366 114.302 381.651 115.118 381.651 116.18C381.651 118.045 381.275 119.806 380.524 121.463C379.773 123.121 378.763 124.571 377.494 125.814C376.225 127.032 374.736 128.003 373.026 128.728C371.343 129.427 369.556 129.777 367.665 129.777C365.723 129.777 363.884 129.401 362.149 128.65C360.413 127.873 358.898 126.837 357.603 125.542C356.308 124.247 355.285 122.719 354.534 120.958C353.783 119.197 353.408 117.332 353.408 115.364C353.408 113.396 353.783 111.544 354.534 109.809C355.285 108.073 356.308 106.558 357.603 105.263C358.924 103.942 360.452 102.906 362.188 102.155C363.923 101.404 365.775 101.029 367.743 101.029C369.815 101.029 371.744 101.443 373.531 102.272C375.344 103.101 376.911 104.227 378.232 105.652L373.493 109.614C372.742 108.889 371.874 108.319 370.89 107.905C369.931 107.491 368.883 107.283 367.743 107.283C366.629 107.283 365.58 107.504 364.596 107.944C363.612 108.358 362.744 108.928 361.993 109.653C361.268 110.378 360.685 111.233 360.245 112.217C359.831 113.201 359.624 114.25 359.624 115.364C359.624 116.478 359.831 117.54 360.245 118.55C360.685 119.534 361.268 120.401 361.993 121.153C362.744 121.878 363.612 122.46 364.596 122.901C365.58 123.315 366.629 123.522 367.743 123.522C368.598 123.522 369.413 123.393 370.19 123.134C370.993 122.875 371.718 122.512 372.366 122.046C373.039 121.58 373.622 121.036 374.114 120.414C374.632 119.767 375.047 119.068 375.357 118.317H368.753V112.878H378.349ZM391.848 119.249H398.569L395.228 111.052L391.848 119.249ZM391.771 104.525C391.926 104.137 392.107 103.761 392.315 103.399C392.522 103.036 392.755 102.712 393.014 102.427C393.299 102.142 393.61 101.922 393.946 101.767C394.309 101.586 394.736 101.495 395.228 101.495C395.72 101.495 396.135 101.586 396.471 101.767C396.834 101.922 397.145 102.142 397.404 102.427C397.689 102.712 397.922 103.036 398.103 103.399C398.31 103.761 398.492 104.137 398.647 104.525L409.253 129H402.571L400.823 124.688H389.634L387.847 129H381.165L391.771 104.525ZM411.727 109.226C411.727 107.672 412.012 106.377 412.582 105.341C413.178 104.305 413.929 103.463 414.835 102.816C415.767 102.168 416.778 101.715 417.865 101.456C418.979 101.171 420.041 101.029 421.051 101.029C422.993 101.029 424.69 101.443 426.14 102.272C427.616 103.075 428.834 104.098 429.792 105.341L425.208 108.682C424.742 108.138 424.146 107.659 423.421 107.245C422.721 106.83 421.919 106.623 421.012 106.623C420.65 106.623 420.274 106.662 419.885 106.74C419.497 106.817 419.147 106.96 418.837 107.167C418.526 107.348 418.267 107.594 418.06 107.905C417.852 108.216 417.749 108.591 417.749 109.032C417.749 109.498 417.865 109.912 418.098 110.275C418.357 110.612 418.707 110.935 419.147 111.246C419.588 111.531 420.106 111.803 420.701 112.062C421.323 112.321 422.009 112.593 422.76 112.878C423.511 113.188 424.314 113.551 425.169 113.965C426.05 114.354 426.852 114.872 427.578 115.519C428.329 116.141 428.95 116.931 429.442 117.889C429.934 118.847 430.18 120.039 430.18 121.463C430.18 123.017 429.883 124.325 429.287 125.387C428.691 126.449 427.927 127.304 426.995 127.951C426.062 128.599 425.039 129.065 423.926 129.35C422.812 129.635 421.724 129.777 420.662 129.777C418.565 129.777 416.752 129.324 415.224 128.417C413.696 127.511 412.349 126.358 411.183 124.96L415.767 121.619C416.285 122.292 416.972 122.888 417.826 123.406C418.681 123.924 419.652 124.183 420.74 124.183C421.129 124.183 421.517 124.144 421.906 124.066C422.32 123.963 422.696 123.82 423.032 123.639C423.369 123.432 423.641 123.173 423.848 122.862C424.055 122.525 424.159 122.124 424.159 121.658C424.159 121.14 424.029 120.699 423.77 120.337C423.511 119.948 423.162 119.599 422.721 119.288C422.281 118.977 421.75 118.692 421.129 118.433C420.533 118.148 419.898 117.876 419.225 117.617C418.396 117.281 417.529 116.918 416.622 116.529C415.742 116.115 414.939 115.597 414.214 114.976C413.488 114.354 412.893 113.59 412.426 112.683C411.96 111.751 411.727 110.599 411.727 109.226Z" fill="white"/>
<path d="M163.308 183.036C163.308 182.388 163.176 181.764 162.912 181.164C162.672 180.564 162.336 180.036 161.904 179.58C161.472 179.124 160.956 178.764 160.356 178.5C159.78 178.236 159.168 178.104 158.52 178.104C157.872 178.104 157.248 178.236 156.648 178.5C156.072 178.764 155.568 179.124 155.136 179.58C154.704 180.036 154.356 180.564 154.092 181.164C153.852 181.764 153.732 182.388 153.732 183.036C153.732 183.708 153.852 184.356 154.092 184.98C154.356 185.58 154.704 186.108 155.136 186.564C155.568 187.02 156.072 187.38 156.648 187.644C157.248 187.908 157.872 188.04 158.52 188.04C159.168 188.04 159.78 187.908 160.356 187.644C160.956 187.38 161.472 187.02 161.904 186.564C162.336 186.108 162.672 185.58 162.912 184.98C163.176 184.356 163.308 183.708 163.308 183.036ZM168.42 183.072C168.42 184.416 168.18 185.676 167.7 186.852C167.244 188.028 166.62 189.06 165.828 189.948C165.036 190.836 164.1 191.532 163.02 192.036C161.94 192.54 160.788 192.792 159.564 192.792C158.508 192.792 157.512 192.6 156.576 192.216C155.64 191.856 154.788 191.34 154.02 190.668V199.2H148.62V174H154.02V175.476C154.788 174.804 155.64 174.288 156.576 173.928C157.512 173.544 158.508 173.352 159.564 173.352C160.788 173.352 161.94 173.604 163.02 174.108C164.1 174.612 165.036 175.308 165.828 176.196C166.62 177.084 167.244 178.116 167.7 179.292C168.18 180.468 168.42 181.728 168.42 183.072ZM169.868 183.072C169.868 181.728 170.12 180.468 170.624 179.292C171.152 178.116 171.86 177.084 172.748 176.196C173.66 175.308 174.716 174.612 175.916 174.108C177.116 173.604 178.4 173.352 179.768 173.352C181.136 173.352 182.42 173.604 183.62 174.108C184.82 174.612 185.864 175.308 186.752 176.196C187.664 177.084 188.372 178.116 188.876 179.292C189.404 180.468 189.668 181.728 189.668 183.072C189.668 184.416 189.404 185.676 188.876 186.852C188.372 188.028 187.664 189.06 186.752 189.948C185.864 190.836 184.82 191.532 183.62 192.036C182.42 192.54 181.136 192.792 179.768 192.792C178.4 192.792 177.116 192.54 175.916 192.036C174.716 191.532 173.66 190.836 172.748 189.948C171.86 189.06 171.152 188.028 170.624 186.852C170.12 185.676 169.868 184.416 169.868 183.072ZM174.98 183.036C174.98 183.708 175.1 184.356 175.34 184.98C175.604 185.58 175.952 186.108 176.384 186.564C176.816 187.02 177.32 187.38 177.896 187.644C178.496 187.908 179.12 188.04 179.768 188.04C180.416 188.04 181.028 187.908 181.604 187.644C182.204 187.38 182.72 187.02 183.152 186.564C183.584 186.108 183.92 185.58 184.16 184.98C184.424 184.356 184.556 183.708 184.556 183.036C184.556 182.388 184.424 181.764 184.16 181.164C183.92 180.564 183.584 180.036 183.152 179.58C182.72 179.124 182.204 178.764 181.604 178.5C181.028 178.236 180.416 178.104 179.768 178.104C179.12 178.104 178.496 178.236 177.896 178.5C177.32 178.764 176.816 179.124 176.384 179.58C175.952 180.036 175.604 180.564 175.34 181.164C175.1 181.764 174.98 182.388 174.98 183.036ZM202.191 178.464C200.631 178.464 199.443 178.896 198.627 179.76C197.811 180.624 197.403 181.776 197.403 183.216V192H192.003V174H197.403V175.98C197.907 175.14 198.615 174.504 199.527 174.072C200.439 173.64 201.327 173.424 202.191 173.424V178.464ZM215.586 183.036C215.586 183.708 215.706 184.356 215.946 184.98C216.21 185.58 216.558 186.108 216.99 186.564C217.422 187.02 217.926 187.38 218.502 187.644C219.102 187.908 219.726 188.04 220.374 188.04C221.022 188.04 221.634 187.908 222.21 187.644C222.81 187.38 223.326 187.02 223.758 186.564C224.19 186.108 224.526 185.58 224.766 184.98C225.03 184.356 225.162 183.708 225.162 183.036C225.162 182.388 225.03 181.764 224.766 181.164C224.526 180.564 224.19 180.036 223.758 179.58C223.326 179.124 222.81 178.764 222.21 178.5C221.634 178.236 221.022 178.104 220.374 178.104C219.726 178.104 219.102 178.236 218.502 178.5C217.926 178.764 217.422 179.124 216.99 179.58C216.558 180.036 216.21 180.564 215.946 181.164C215.706 181.764 215.586 182.388 215.586 183.036ZM210.474 183.072C210.474 181.728 210.702 180.468 211.158 179.292C211.638 178.116 212.274 177.084 213.066 176.196C213.858 175.308 214.794 174.612 215.874 174.108C216.954 173.604 218.106 173.352 219.33 173.352C220.386 173.352 221.382 173.544 222.318 173.928C223.254 174.288 224.106 174.804 224.874 175.476V174H230.274V192H224.874V190.668C224.106 191.34 223.254 191.856 222.318 192.216C221.382 192.6 220.386 192.792 219.33 192.792C218.106 192.792 216.954 192.54 215.874 192.036C214.794 191.532 213.858 190.836 213.066 189.948C212.274 189.06 211.638 188.028 211.158 186.852C210.702 185.676 210.474 184.416 210.474 183.072ZM248.21 183.036C248.21 182.388 248.078 181.764 247.814 181.164C247.574 180.564 247.238 180.036 246.806 179.58C246.374 179.124 245.858 178.764 245.258 178.5C244.682 178.236 244.07 178.104 243.422 178.104C242.774 178.104 242.15 178.236 241.55 178.5C240.974 178.764 240.47 179.124 240.038 179.58C239.606 180.036 239.258 180.564 238.994 181.164C238.754 181.764 238.634 182.388 238.634 183.036C238.634 183.708 238.754 184.356 238.994 184.98C239.258 185.58 239.606 186.108 240.038 186.564C240.47 187.02 240.974 187.38 241.55 187.644C242.15 187.908 242.774 188.04 243.422 188.04C244.07 188.04 244.682 187.908 245.258 187.644C245.858 187.38 246.374 187.02 246.806 186.564C247.238 186.108 247.574 185.58 247.814 184.98C248.078 184.356 248.21 183.708 248.21 183.036ZM253.322 183.072C253.322 184.416 253.082 185.676 252.602 186.852C252.146 188.028 251.522 189.06 250.73 189.948C249.938 190.836 249.002 191.532 247.922 192.036C246.842 192.54 245.69 192.792 244.466 192.792C243.41 192.792 242.414 192.6 241.478 192.216C240.542 191.856 239.69 191.34 238.922 190.668V199.2H233.522V174H238.922V175.476C239.69 174.804 240.542 174.288 241.478 173.928C242.414 173.544 243.41 173.352 244.466 173.352C245.69 173.352 246.842 173.604 247.922 174.108C249.002 174.612 249.938 175.308 250.73 176.196C251.522 177.084 252.146 178.116 252.602 179.292C253.082 180.468 253.322 181.728 253.322 183.072ZM268.847 181.164C268.511 180.252 267.947 179.508 267.155 178.932C266.387 178.332 265.499 178.032 264.491 178.032C263.507 178.032 262.619 178.332 261.827 178.932C261.059 179.508 260.507 180.252 260.171 181.164H268.847ZM260.099 184.728C260.435 185.712 261.023 186.528 261.863 187.176C262.703 187.8 263.651 188.112 264.707 188.112C265.475 188.112 266.183 187.932 266.831 187.572C267.503 187.188 268.055 186.684 268.487 186.06L273.239 187.788C272.375 189.3 271.187 190.512 269.675 191.424C268.187 192.336 266.519 192.792 264.671 192.792C263.303 192.792 262.019 192.54 260.819 192.036C259.619 191.532 258.563 190.836 257.651 189.948C256.763 189.06 256.055 188.028 255.527 186.852C255.023 185.676 254.771 184.416 254.771 183.072C254.771 181.728 255.023 180.468 255.527 179.292C256.055 178.116 256.763 177.084 257.651 176.196C258.563 175.308 259.619 174.612 260.819 174.108C262.019 173.604 263.303 173.352 264.671 173.352C265.943 173.352 267.143 173.58 268.271 174.036C269.423 174.468 270.431 175.08 271.295 175.872C272.183 176.64 272.903 177.552 273.455 178.608C274.007 179.64 274.355 180.768 274.499 181.992C274.595 182.832 274.391 183.504 273.887 184.008C273.407 184.488 272.675 184.728 271.691 184.728H260.099ZM289.866 182.244C289.866 181.716 289.77 181.224 289.578 180.768C289.386 180.312 289.11 179.916 288.75 179.58C288.414 179.22 288.018 178.944 287.562 178.752C287.106 178.56 286.614 178.464 286.086 178.464C285.558 178.464 285.054 178.56 284.574 178.752C284.118 178.944 283.722 179.22 283.386 179.58C283.05 179.916 282.774 180.312 282.558 180.768C282.366 181.224 282.27 181.716 282.27 182.244V192H276.87V174H282.27V175.332C282.966 174.732 283.746 174.264 284.61 173.928C285.498 173.592 286.434 173.424 287.418 173.424C288.498 173.424 289.506 173.628 290.442 174.036C291.402 174.444 292.242 175.008 292.962 175.728C293.682 176.448 294.246 177.288 294.654 178.248C295.062 179.184 295.266 180.192 295.266 181.272V192H289.866V182.244ZM302.703 183.036C302.703 183.708 302.823 184.356 303.063 184.98C303.327 185.58 303.675 186.108 304.107 186.564C304.539 187.02 305.043 187.38 305.619 187.644C306.219 187.908 306.843 188.04 307.491 188.04C308.139 188.04 308.751 187.908 309.327 187.644C309.927 187.38 310.443 187.02 310.875 186.564C311.307 186.108 311.643 185.58 311.883 184.98C312.147 184.356 312.279 183.708 312.279 183.036C312.279 182.388 312.147 181.764 311.883 181.164C311.643 180.564 311.307 180.036 310.875 179.58C310.443 179.124 309.927 178.764 309.327 178.5C308.751 178.236 308.139 178.104 307.491 178.104C306.843 178.104 306.219 178.236 305.619 178.5C305.043 178.764 304.539 179.124 304.107 179.58C303.675 180.036 303.327 180.564 303.063 181.164C302.823 181.764 302.703 182.388 302.703 183.036ZM297.591 183.072C297.591 181.728 297.819 180.468 298.275 179.292C298.755 178.116 299.391 177.084 300.183 176.196C300.975 175.308 301.911 174.612 302.991 174.108C304.071 173.604 305.223 173.352 306.447 173.352C307.503 173.352 308.499 173.544 309.435 173.928C310.371 174.288 311.223 174.804 311.991 175.476V174H317.391V192H311.991V190.668C311.223 191.34 310.371 191.856 309.435 192.216C308.499 192.6 307.503 192.792 306.447 192.792C305.223 192.792 304.071 192.54 302.991 192.036C301.911 191.532 300.975 190.836 300.183 189.948C299.391 189.06 298.755 188.028 298.275 186.852C297.819 185.676 297.591 184.416 297.591 183.072ZM319.884 179.04C319.884 177.96 320.1 177.06 320.532 176.34C320.988 175.62 321.564 175.044 322.26 174.612C322.956 174.156 323.724 173.832 324.564 173.64C325.404 173.448 326.208 173.352 326.976 173.352C328.488 173.352 329.808 173.664 330.936 174.288C332.088 174.888 333.036 175.644 333.78 176.556L329.784 179.22C329.448 178.812 329.064 178.476 328.632 178.212C328.224 177.948 327.732 177.816 327.156 177.816C326.748 177.816 326.328 177.912 325.896 178.104C325.488 178.272 325.284 178.572 325.284 179.004C325.284 179.436 325.536 179.784 326.04 180.048C326.544 180.288 327.12 180.528 327.768 180.768C328.512 181.032 329.244 181.32 329.964 181.632C330.708 181.92 331.368 182.304 331.944 182.784C332.544 183.24 333.024 183.804 333.384 184.476C333.744 185.124 333.924 185.94 333.924 186.924C333.924 188.004 333.696 188.916 333.24 189.66C332.808 190.404 332.244 191.004 331.548 191.46C330.852 191.916 330.084 192.24 329.244 192.432C328.404 192.624 327.588 192.72 326.796 192.72C325.164 192.72 323.748 192.384 322.548 191.712C321.348 191.04 320.292 190.2 319.38 189.192L323.34 186.348C323.748 186.828 324.228 187.26 324.78 187.644C325.356 188.028 325.992 188.22 326.688 188.22C327.072 188.22 327.468 188.136 327.876 187.968C328.308 187.776 328.524 187.452 328.524 186.996C328.524 186.516 328.26 186.132 327.732 185.844C327.204 185.556 326.46 185.244 325.5 184.908C324.828 184.644 324.156 184.368 323.484 184.08C322.812 183.792 322.212 183.432 321.684 183C321.156 182.544 320.724 182.004 320.388 181.38C320.052 180.732 319.884 179.952 319.884 179.04Z" fill="white"/>
</svg>
