<svg width="482" height="370" viewBox="0 0 482 370" fill="none" xmlns="http://www.w3.org/2000/svg">
<rect x="56" y="190" width="366" height="180" rx="18" fill="#022162"/>
<rect width="482" height="231" rx="30" fill="#0022EF"/>
<path d="M115.964 324.16H122.063C122.659 324.16 123.177 324.069 123.617 323.888C124.058 323.681 124.42 323.409 124.705 323.072C125.016 322.735 125.249 322.36 125.404 321.945C125.56 321.531 125.637 321.117 125.637 320.702C125.637 320.262 125.56 319.835 125.404 319.42C125.249 319.006 125.016 318.643 124.705 318.332C124.42 317.996 124.058 317.737 123.617 317.555C123.177 317.348 122.659 317.245 122.063 317.245H115.964V324.16ZM125.715 339L119.538 329.599H115.964V339H109.942V315.691C109.942 313.101 111.237 311.806 113.827 311.806H122.646C124.174 311.806 125.508 312.065 126.647 312.583C127.787 313.075 128.732 313.748 129.483 314.603C130.26 315.432 130.843 316.377 131.232 317.439C131.62 318.501 131.814 319.588 131.814 320.702C131.814 321.557 131.698 322.412 131.465 323.266C131.232 324.121 130.882 324.924 130.416 325.675C129.95 326.4 129.354 327.06 128.629 327.656C127.929 328.226 127.114 328.679 126.181 329.016L132.708 339H125.715ZM135.583 319.187C135.583 317.918 135.778 316.83 136.166 315.924C136.58 314.991 137.111 314.201 137.759 313.554C138.432 312.906 139.196 312.401 140.051 312.039C140.906 311.65 141.773 311.378 142.654 311.223V308.115H146.422V311.106C148.002 311.314 149.388 311.793 150.579 312.544C151.796 313.295 152.819 314.214 153.648 315.302L149.064 318.643C148.598 318.099 148.002 317.62 147.277 317.206C146.578 316.791 145.775 316.584 144.868 316.584C144.506 316.584 144.13 316.623 143.742 316.701C143.353 316.778 143.003 316.921 142.693 317.128C142.382 317.309 142.123 317.555 141.916 317.866C141.709 318.177 141.605 318.553 141.605 318.993C141.605 319.459 141.721 319.873 141.955 320.236C142.214 320.573 142.55 320.896 142.965 321.207C143.405 321.492 143.923 321.764 144.519 322.023C145.14 322.282 145.814 322.554 146.539 322.839C147.316 323.15 148.144 323.512 149.025 323.927C149.906 324.315 150.709 324.833 151.434 325.481C152.185 326.128 152.806 326.931 153.298 327.889C153.791 328.847 154.037 330.039 154.037 331.463C154.037 332.784 153.816 333.937 153.376 334.921C152.936 335.879 152.353 336.682 151.628 337.329C150.903 337.977 150.087 338.495 149.18 338.883C148.274 339.246 147.355 339.492 146.422 339.622V342.691H142.654V339.622C141.022 339.363 139.585 338.819 138.342 337.99C137.124 337.135 136.024 336.125 135.039 334.96L139.624 331.619C140.142 332.292 140.828 332.888 141.683 333.406C142.537 333.924 143.509 334.183 144.596 334.183C144.985 334.183 145.373 334.144 145.762 334.066C146.176 333.963 146.552 333.82 146.888 333.639C147.225 333.432 147.497 333.173 147.704 332.862C147.911 332.525 148.015 332.124 148.015 331.658C148.015 331.14 147.886 330.699 147.627 330.337C147.368 329.948 147.018 329.599 146.578 329.288C146.137 328.977 145.606 328.692 144.985 328.433C144.389 328.148 143.755 327.876 143.081 327.617C142.252 327.281 141.385 326.918 140.478 326.529C139.598 326.115 138.795 325.597 138.07 324.976C137.344 324.328 136.749 323.551 136.283 322.645C135.816 321.712 135.583 320.56 135.583 319.187ZM229.45 282.625C229.45 285.792 229.033 288.792 228.2 291.625C227.366 294.458 226.241 297.292 224.825 300.125C223.408 302.958 221.741 305.833 219.825 308.75C217.908 311.667 215.866 314.833 213.7 318.25L200.45 339H176.7L193.825 314.125C192.908 314.292 191.991 314.458 191.075 314.625C190.158 314.708 189.2 314.75 188.2 314.75C184.283 314.75 180.575 313.917 177.075 312.25C173.575 310.5 170.491 308.167 167.825 305.25C165.241 302.25 163.158 298.833 161.575 295C160.075 291.083 159.325 287 159.325 282.75C159.325 278 160.241 273.583 162.075 269.5C163.908 265.417 166.408 261.875 169.575 258.875C172.825 255.792 176.575 253.375 180.825 251.625C185.075 249.875 189.616 249 194.45 249C199.283 249 203.825 249.875 208.075 251.625C212.325 253.375 216.033 255.792 219.2 258.875C222.366 261.875 224.866 265.417 226.7 269.5C228.533 273.583 229.45 277.958 229.45 282.625ZM209.45 281.875C209.45 279.708 209.033 277.708 208.2 275.875C207.45 274.042 206.366 272.458 204.95 271.125C203.616 269.708 202.033 268.625 200.2 267.875C198.45 267.042 196.533 266.625 194.45 266.625C192.366 266.625 190.408 267.042 188.575 267.875C186.741 268.625 185.116 269.708 183.7 271.125C182.366 272.458 181.283 274.042 180.45 275.875C179.7 277.708 179.325 279.708 179.325 281.875C179.325 284.042 179.7 286.083 180.45 288C181.283 289.833 182.366 291.458 183.7 292.875C185.116 294.208 186.741 295.292 188.575 296.125C190.408 296.875 192.366 297.25 194.45 297.25C196.533 297.25 198.45 296.875 200.2 296.125C202.033 295.292 203.616 294.208 204.95 292.875C206.366 291.458 207.45 289.833 208.2 288C209.033 286.083 209.45 284.042 209.45 281.875ZM307.086 282.625C307.086 285.792 306.67 288.792 305.836 291.625C305.003 294.458 303.878 297.292 302.461 300.125C301.045 302.958 299.378 305.833 297.461 308.75C295.545 311.667 293.503 314.833 291.336 318.25L278.086 339H254.336L271.461 314.125C270.545 314.292 269.628 314.458 268.711 314.625C267.795 314.708 266.836 314.75 265.836 314.75C261.92 314.75 258.211 313.917 254.711 312.25C251.211 310.5 248.128 308.167 245.461 305.25C242.878 302.25 240.795 298.833 239.211 295C237.711 291.083 236.961 287 236.961 282.75C236.961 278 237.878 273.583 239.711 269.5C241.545 265.417 244.045 261.875 247.211 258.875C250.461 255.792 254.211 253.375 258.461 251.625C262.711 249.875 267.253 249 272.086 249C276.92 249 281.461 249.875 285.711 251.625C289.961 253.375 293.67 255.792 296.836 258.875C300.003 261.875 302.503 265.417 304.336 269.5C306.17 273.583 307.086 277.958 307.086 282.625ZM287.086 281.875C287.086 279.708 286.67 277.708 285.836 275.875C285.086 274.042 284.003 272.458 282.586 271.125C281.253 269.708 279.67 268.625 277.836 267.875C276.086 267.042 274.17 266.625 272.086 266.625C270.003 266.625 268.045 267.042 266.211 267.875C264.378 268.625 262.753 269.708 261.336 271.125C260.003 272.458 258.92 274.042 258.086 275.875C257.336 277.708 256.961 279.708 256.961 281.875C256.961 284.042 257.336 286.083 258.086 288C258.92 289.833 260.003 291.458 261.336 292.875C262.753 294.208 264.378 295.292 266.211 296.125C268.045 296.875 270.003 297.25 272.086 297.25C274.17 297.25 276.086 296.875 277.836 296.125C279.67 295.292 281.253 294.208 282.586 292.875C284.003 291.458 285.086 289.833 285.836 288C286.67 286.083 287.086 284.042 287.086 281.875ZM312.014 336.281C312.014 335.322 312.35 334.506 313.024 333.833C313.723 333.134 314.552 332.784 315.51 332.784C315.976 332.784 316.417 332.875 316.831 333.056C317.271 333.237 317.647 333.483 317.958 333.794C318.294 334.105 318.553 334.468 318.735 334.882C318.916 335.271 319.006 335.685 319.006 336.125C319.006 336.643 318.903 337.2 318.696 337.796C318.488 338.365 318.307 338.832 318.152 339.194L316.015 344.128H312.519L314.267 339.544C313.594 339.285 313.05 338.871 312.635 338.301C312.221 337.705 312.014 337.032 312.014 336.281ZM343.141 321.479C343.141 322.463 343.011 323.396 342.752 324.276C342.493 325.157 342.144 326.037 341.703 326.918C341.263 327.799 340.745 328.692 340.149 329.599C339.554 330.505 338.919 331.489 338.246 332.551L334.128 339H326.747L332.069 331.269C331.784 331.321 331.499 331.373 331.214 331.424C330.929 331.45 330.631 331.463 330.321 331.463C329.103 331.463 327.951 331.204 326.863 330.686C325.775 330.142 324.817 329.417 323.988 328.511C323.185 327.578 322.538 326.517 322.046 325.325C321.58 324.108 321.347 322.839 321.347 321.518C321.347 320.042 321.631 318.669 322.201 317.4C322.771 316.131 323.548 315.03 324.532 314.098C325.542 313.14 326.708 312.388 328.029 311.845C329.349 311.301 330.761 311.029 332.263 311.029C333.765 311.029 335.177 311.301 336.498 311.845C337.818 312.388 338.971 313.14 339.955 314.098C340.939 315.03 341.716 316.131 342.286 317.4C342.856 318.669 343.141 320.029 343.141 321.479ZM336.925 321.246C336.925 320.573 336.795 319.951 336.536 319.381C336.303 318.812 335.967 318.319 335.526 317.905C335.112 317.465 334.62 317.128 334.05 316.895C333.506 316.636 332.911 316.506 332.263 316.506C331.616 316.506 331.007 316.636 330.437 316.895C329.867 317.128 329.362 317.465 328.922 317.905C328.508 318.319 328.171 318.812 327.912 319.381C327.679 319.951 327.562 320.573 327.562 321.246C327.562 321.919 327.679 322.554 327.912 323.15C328.171 323.719 328.508 324.224 328.922 324.665C329.362 325.079 329.867 325.416 330.437 325.675C331.007 325.908 331.616 326.024 332.263 326.024C332.911 326.024 333.506 325.908 334.05 325.675C334.62 325.416 335.112 325.079 335.526 324.665C335.967 324.224 336.303 323.719 336.536 323.15C336.795 322.554 336.925 321.919 336.925 321.246ZM367.27 321.479C367.27 322.463 367.14 323.396 366.881 324.276C366.622 325.157 366.272 326.037 365.832 326.918C365.392 327.799 364.874 328.692 364.278 329.599C363.683 330.505 363.048 331.489 362.375 332.551L358.257 339H350.875L356.198 331.269C355.913 331.321 355.628 331.373 355.343 331.424C355.058 331.45 354.76 331.463 354.449 331.463C353.232 331.463 352.08 331.204 350.992 330.686C349.904 330.142 348.946 329.417 348.117 328.511C347.314 327.578 346.667 326.517 346.175 325.325C345.708 324.108 345.475 322.839 345.475 321.518C345.475 320.042 345.76 318.669 346.33 317.4C346.9 316.131 347.677 315.03 348.661 314.098C349.671 313.14 350.836 312.388 352.157 311.845C353.478 311.301 354.89 311.029 356.392 311.029C357.894 311.029 359.306 311.301 360.626 311.845C361.947 312.388 363.1 313.14 364.084 314.098C365.068 315.03 365.845 316.131 366.415 317.4C366.985 318.669 367.27 320.029 367.27 321.479ZM361.054 321.246C361.054 320.573 360.924 319.951 360.665 319.381C360.432 318.812 360.095 318.319 359.655 317.905C359.241 317.465 358.749 317.128 358.179 316.895C357.635 316.636 357.039 316.506 356.392 316.506C355.744 316.506 355.136 316.636 354.566 316.895C353.996 317.128 353.491 317.465 353.051 317.905C352.636 318.319 352.3 318.812 352.041 319.381C351.808 319.951 351.691 320.573 351.691 321.246C351.691 321.919 351.808 322.554 352.041 323.15C352.3 323.719 352.636 324.224 353.051 324.665C353.491 325.079 353.996 325.416 354.566 325.675C355.136 325.908 355.744 326.024 356.392 326.024C357.039 326.024 357.635 325.908 358.179 325.675C358.749 325.416 359.241 325.079 359.655 324.665C360.095 324.224 360.432 323.719 360.665 323.15C360.924 322.554 361.054 321.919 361.054 321.246Z" fill="white"/>
<path d="M63.5 93.125V77.375H74.125C78.0417 77.375 80.9583 76.2917 82.875 74.125C84.7917 71.9583 85.75 69.625 85.75 67.125C85.75 64.5417 84.75 62.2083 82.75 60.125C80.8333 57.9583 77.9583 56.875 74.125 56.875C70.2917 56.875 66.8333 58 63.75 60.25C60.75 62.5 58.2917 65.0833 56.375 68L41.625 57.25C43.375 54.6667 45.375 52.25 47.625 50C49.875 47.75 52.3333 45.8333 55 44.25C57.75 42.5833 60.7083 41.2917 63.875 40.375C67.125 39.4583 70.5417 39 74.125 39C77.5417 39 81.0417 39.5 84.625 40.5C88.2917 41.4167 91.625 42.9167 94.625 45C97.625 47.0833 100.083 49.8333 102 53.25C104 56.5833 105 60.625 105 65.375C105 69.375 104.125 73 102.375 76.25C100.625 79.4167 98.2917 82.2083 95.375 84.625C99.125 87.0417 102.083 89.9583 104.25 93.375C106.417 96.7083 107.5 100.625 107.5 105.125C107.5 109.958 106.458 114.042 104.375 117.375C102.375 120.708 99.7917 123.417 96.625 125.5C93.4583 127.583 89.9583 129.083 86.125 130C82.2917 131 78.625 131.5 75.125 131.5C71.2917 131.5 67.6667 131.042 64.25 130.125C60.8333 129.208 57.6667 127.958 54.75 126.375C51.9167 124.708 49.2917 122.75 46.875 120.5C44.5417 118.25 42.5 115.833 40.75 113.25L55.5 102.5C57.5833 105.417 60.3333 108 63.75 110.25C67.1667 112.5 71.0417 113.625 75.375 113.625C79.625 113.625 82.8333 112.583 85 110.5C87.1667 108.417 88.25 106.083 88.25 103.5C88.25 102.25 87.9583 101 87.375 99.75C86.875 98.5 86.0417 97.4167 84.875 96.5C83.7917 95.5 82.4167 94.7083 80.75 94.125C79.0833 93.4583 77.125 93.125 74.875 93.125H63.5ZM116.219 85.125C116.219 78.7917 117.219 72.8333 119.219 67.25C121.219 61.6667 123.927 56.7917 127.344 52.625C130.844 48.375 134.885 45.0417 139.469 42.625C144.052 40.2083 148.969 39 154.219 39C159.469 39 164.385 40.2083 168.969 42.625C173.635 45.0417 177.677 48.375 181.094 52.625C184.594 56.7917 187.344 61.6667 189.344 67.25C191.344 72.8333 192.344 78.7917 192.344 85.125C192.344 91.4583 191.344 97.4583 189.344 103.125C187.344 108.792 184.594 113.708 181.094 117.875C177.677 122.042 173.635 125.375 168.969 127.875C164.385 130.292 159.469 131.5 154.219 131.5C148.969 131.5 144.052 130.292 139.469 127.875C134.885 125.375 130.844 122.042 127.344 117.875C123.927 113.708 121.219 108.792 119.219 103.125C117.219 97.4583 116.219 91.4583 116.219 85.125ZM136.219 85.125C136.219 89.125 136.677 92.875 137.594 96.375C138.594 99.875 139.885 102.917 141.469 105.5C143.135 108.083 145.052 110.125 147.219 111.625C149.385 113.125 151.719 113.875 154.219 113.875C156.719 113.875 159.052 113.125 161.219 111.625C163.469 110.125 165.385 108.083 166.969 105.5C168.635 102.917 169.927 99.875 170.844 96.375C171.844 92.875 172.344 89.125 172.344 85.125C172.344 81.125 171.844 77.4167 170.844 74C169.927 70.5 168.635 67.4583 166.969 64.875C165.385 62.2917 163.469 60.25 161.219 58.75C159.052 57.25 156.719 56.5 154.219 56.5C151.719 56.5 149.385 57.25 147.219 58.75C145.052 60.25 143.135 62.2917 141.469 64.875C139.885 67.4583 138.594 70.5 137.594 74C136.677 77.4167 136.219 81.125 136.219 85.125ZM202.4 85.125C202.4 78.7917 203.4 72.8333 205.4 67.25C207.4 61.6667 210.109 56.7917 213.525 52.625C217.025 48.375 221.067 45.0417 225.65 42.625C230.234 40.2083 235.15 39 240.4 39C245.65 39 250.567 40.2083 255.15 42.625C259.817 45.0417 263.859 48.375 267.275 52.625C270.775 56.7917 273.525 61.6667 275.525 67.25C277.525 72.8333 278.525 78.7917 278.525 85.125C278.525 91.4583 277.525 97.4583 275.525 103.125C273.525 108.792 270.775 113.708 267.275 117.875C263.859 122.042 259.817 125.375 255.15 127.875C250.567 130.292 245.65 131.5 240.4 131.5C235.15 131.5 230.234 130.292 225.65 127.875C221.067 125.375 217.025 122.042 213.525 117.875C210.109 113.708 207.4 108.792 205.4 103.125C203.4 97.4583 202.4 91.4583 202.4 85.125ZM222.4 85.125C222.4 89.125 222.859 92.875 223.775 96.375C224.775 99.875 226.067 102.917 227.65 105.5C229.317 108.083 231.234 110.125 233.4 111.625C235.567 113.125 237.9 113.875 240.4 113.875C242.9 113.875 245.234 113.125 247.4 111.625C249.65 110.125 251.567 108.083 253.15 105.5C254.817 102.917 256.109 99.875 257.025 96.375C258.025 92.875 258.525 89.125 258.525 85.125C258.525 81.125 258.025 77.4167 257.025 74C256.109 70.5 254.817 67.4583 253.15 64.875C251.567 62.2917 249.65 60.25 247.4 58.75C245.234 57.25 242.9 56.5 240.4 56.5C237.9 56.5 235.567 57.25 233.4 58.75C231.234 60.25 229.317 62.2917 227.65 64.875C226.067 67.4583 224.775 70.5 223.775 74C222.859 77.4167 222.4 81.125 222.4 85.125Z" fill="white"/>
<path d="M163.308 183.036C163.308 182.388 163.176 181.764 162.912 181.164C162.672 180.564 162.336 180.036 161.904 179.58C161.472 179.124 160.956 178.764 160.356 178.5C159.78 178.236 159.168 178.104 158.52 178.104C157.872 178.104 157.248 178.236 156.648 178.5C156.072 178.764 155.568 179.124 155.136 179.58C154.704 180.036 154.356 180.564 154.092 181.164C153.852 181.764 153.732 182.388 153.732 183.036C153.732 183.708 153.852 184.356 154.092 184.98C154.356 185.58 154.704 186.108 155.136 186.564C155.568 187.02 156.072 187.38 156.648 187.644C157.248 187.908 157.872 188.04 158.52 188.04C159.168 188.04 159.78 187.908 160.356 187.644C160.956 187.38 161.472 187.02 161.904 186.564C162.336 186.108 162.672 185.58 162.912 184.98C163.176 184.356 163.308 183.708 163.308 183.036ZM168.42 183.072C168.42 184.416 168.18 185.676 167.7 186.852C167.244 188.028 166.62 189.06 165.828 189.948C165.036 190.836 164.1 191.532 163.02 192.036C161.94 192.54 160.788 192.792 159.564 192.792C158.508 192.792 157.512 192.6 156.576 192.216C155.64 191.856 154.788 191.34 154.02 190.668V199.2H148.62V174H154.02V175.476C154.788 174.804 155.64 174.288 156.576 173.928C157.512 173.544 158.508 173.352 159.564 173.352C160.788 173.352 161.94 173.604 163.02 174.108C164.1 174.612 165.036 175.308 165.828 176.196C166.62 177.084 167.244 178.116 167.7 179.292C168.18 180.468 168.42 181.728 168.42 183.072ZM169.868 183.072C169.868 181.728 170.12 180.468 170.624 179.292C171.152 178.116 171.86 177.084 172.748 176.196C173.66 175.308 174.716 174.612 175.916 174.108C177.116 173.604 178.4 173.352 179.768 173.352C181.136 173.352 182.42 173.604 183.62 174.108C184.82 174.612 185.864 175.308 186.752 176.196C187.664 177.084 188.372 178.116 188.876 179.292C189.404 180.468 189.668 181.728 189.668 183.072C189.668 184.416 189.404 185.676 188.876 186.852C188.372 188.028 187.664 189.06 186.752 189.948C185.864 190.836 184.82 191.532 183.62 192.036C182.42 192.54 181.136 192.792 179.768 192.792C178.4 192.792 177.116 192.54 175.916 192.036C174.716 191.532 173.66 190.836 172.748 189.948C171.86 189.06 171.152 188.028 170.624 186.852C170.12 185.676 169.868 184.416 169.868 183.072ZM174.98 183.036C174.98 183.708 175.1 184.356 175.34 184.98C175.604 185.58 175.952 186.108 176.384 186.564C176.816 187.02 177.32 187.38 177.896 187.644C178.496 187.908 179.12 188.04 179.768 188.04C180.416 188.04 181.028 187.908 181.604 187.644C182.204 187.38 182.72 187.02 183.152 186.564C183.584 186.108 183.92 185.58 184.16 184.98C184.424 184.356 184.556 183.708 184.556 183.036C184.556 182.388 184.424 181.764 184.16 181.164C183.92 180.564 183.584 180.036 183.152 179.58C182.72 179.124 182.204 178.764 181.604 178.5C181.028 178.236 180.416 178.104 179.768 178.104C179.12 178.104 178.496 178.236 177.896 178.5C177.32 178.764 176.816 179.124 176.384 179.58C175.952 180.036 175.604 180.564 175.34 181.164C175.1 181.764 174.98 182.388 174.98 183.036ZM202.191 178.464C200.631 178.464 199.443 178.896 198.627 179.76C197.811 180.624 197.403 181.776 197.403 183.216V192H192.003V174H197.403V175.98C197.907 175.14 198.615 174.504 199.527 174.072C200.439 173.64 201.327 173.424 202.191 173.424V178.464ZM215.586 183.036C215.586 183.708 215.706 184.356 215.946 184.98C216.21 185.58 216.558 186.108 216.99 186.564C217.422 187.02 217.926 187.38 218.502 187.644C219.102 187.908 219.726 188.04 220.374 188.04C221.022 188.04 221.634 187.908 222.21 187.644C222.81 187.38 223.326 187.02 223.758 186.564C224.19 186.108 224.526 185.58 224.766 184.98C225.03 184.356 225.162 183.708 225.162 183.036C225.162 182.388 225.03 181.764 224.766 181.164C224.526 180.564 224.19 180.036 223.758 179.58C223.326 179.124 222.81 178.764 222.21 178.5C221.634 178.236 221.022 178.104 220.374 178.104C219.726 178.104 219.102 178.236 218.502 178.5C217.926 178.764 217.422 179.124 216.99 179.58C216.558 180.036 216.21 180.564 215.946 181.164C215.706 181.764 215.586 182.388 215.586 183.036ZM210.474 183.072C210.474 181.728 210.702 180.468 211.158 179.292C211.638 178.116 212.274 177.084 213.066 176.196C213.858 175.308 214.794 174.612 215.874 174.108C216.954 173.604 218.106 173.352 219.33 173.352C220.386 173.352 221.382 173.544 222.318 173.928C223.254 174.288 224.106 174.804 224.874 175.476V174H230.274V192H224.874V190.668C224.106 191.34 223.254 191.856 222.318 192.216C221.382 192.6 220.386 192.792 219.33 192.792C218.106 192.792 216.954 192.54 215.874 192.036C214.794 191.532 213.858 190.836 213.066 189.948C212.274 189.06 211.638 188.028 211.158 186.852C210.702 185.676 210.474 184.416 210.474 183.072ZM248.21 183.036C248.21 182.388 248.078 181.764 247.814 181.164C247.574 180.564 247.238 180.036 246.806 179.58C246.374 179.124 245.858 178.764 245.258 178.5C244.682 178.236 244.07 178.104 243.422 178.104C242.774 178.104 242.15 178.236 241.55 178.5C240.974 178.764 240.47 179.124 240.038 179.58C239.606 180.036 239.258 180.564 238.994 181.164C238.754 181.764 238.634 182.388 238.634 183.036C238.634 183.708 238.754 184.356 238.994 184.98C239.258 185.58 239.606 186.108 240.038 186.564C240.47 187.02 240.974 187.38 241.55 187.644C242.15 187.908 242.774 188.04 243.422 188.04C244.07 188.04 244.682 187.908 245.258 187.644C245.858 187.38 246.374 187.02 246.806 186.564C247.238 186.108 247.574 185.58 247.814 184.98C248.078 184.356 248.21 183.708 248.21 183.036ZM253.322 183.072C253.322 184.416 253.082 185.676 252.602 186.852C252.146 188.028 251.522 189.06 250.73 189.948C249.938 190.836 249.002 191.532 247.922 192.036C246.842 192.54 245.69 192.792 244.466 192.792C243.41 192.792 242.414 192.6 241.478 192.216C240.542 191.856 239.69 191.34 238.922 190.668V199.2H233.522V174H238.922V175.476C239.69 174.804 240.542 174.288 241.478 173.928C242.414 173.544 243.41 173.352 244.466 173.352C245.69 173.352 246.842 173.604 247.922 174.108C249.002 174.612 249.938 175.308 250.73 176.196C251.522 177.084 252.146 178.116 252.602 179.292C253.082 180.468 253.322 181.728 253.322 183.072ZM268.847 181.164C268.511 180.252 267.947 179.508 267.155 178.932C266.387 178.332 265.499 178.032 264.491 178.032C263.507 178.032 262.619 178.332 261.827 178.932C261.059 179.508 260.507 180.252 260.171 181.164H268.847ZM260.099 184.728C260.435 185.712 261.023 186.528 261.863 187.176C262.703 187.8 263.651 188.112 264.707 188.112C265.475 188.112 266.183 187.932 266.831 187.572C267.503 187.188 268.055 186.684 268.487 186.06L273.239 187.788C272.375 189.3 271.187 190.512 269.675 191.424C268.187 192.336 266.519 192.792 264.671 192.792C263.303 192.792 262.019 192.54 260.819 192.036C259.619 191.532 258.563 190.836 257.651 189.948C256.763 189.06 256.055 188.028 255.527 186.852C255.023 185.676 254.771 184.416 254.771 183.072C254.771 181.728 255.023 180.468 255.527 179.292C256.055 178.116 256.763 177.084 257.651 176.196C258.563 175.308 259.619 174.612 260.819 174.108C262.019 173.604 263.303 173.352 264.671 173.352C265.943 173.352 267.143 173.58 268.271 174.036C269.423 174.468 270.431 175.08 271.295 175.872C272.183 176.64 272.903 177.552 273.455 178.608C274.007 179.64 274.355 180.768 274.499 181.992C274.595 182.832 274.391 183.504 273.887 184.008C273.407 184.488 272.675 184.728 271.691 184.728H260.099ZM289.866 182.244C289.866 181.716 289.77 181.224 289.578 180.768C289.386 180.312 289.11 179.916 288.75 179.58C288.414 179.22 288.018 178.944 287.562 178.752C287.106 178.56 286.614 178.464 286.086 178.464C285.558 178.464 285.054 178.56 284.574 178.752C284.118 178.944 283.722 179.22 283.386 179.58C283.05 179.916 282.774 180.312 282.558 180.768C282.366 181.224 282.27 181.716 282.27 182.244V192H276.87V174H282.27V175.332C282.966 174.732 283.746 174.264 284.61 173.928C285.498 173.592 286.434 173.424 287.418 173.424C288.498 173.424 289.506 173.628 290.442 174.036C291.402 174.444 292.242 175.008 292.962 175.728C293.682 176.448 294.246 177.288 294.654 178.248C295.062 179.184 295.266 180.192 295.266 181.272V192H289.866V182.244ZM302.703 183.036C302.703 183.708 302.823 184.356 303.063 184.98C303.327 185.58 303.675 186.108 304.107 186.564C304.539 187.02 305.043 187.38 305.619 187.644C306.219 187.908 306.843 188.04 307.491 188.04C308.139 188.04 308.751 187.908 309.327 187.644C309.927 187.38 310.443 187.02 310.875 186.564C311.307 186.108 311.643 185.58 311.883 184.98C312.147 184.356 312.279 183.708 312.279 183.036C312.279 182.388 312.147 181.764 311.883 181.164C311.643 180.564 311.307 180.036 310.875 179.58C310.443 179.124 309.927 178.764 309.327 178.5C308.751 178.236 308.139 178.104 307.491 178.104C306.843 178.104 306.219 178.236 305.619 178.5C305.043 178.764 304.539 179.124 304.107 179.58C303.675 180.036 303.327 180.564 303.063 181.164C302.823 181.764 302.703 182.388 302.703 183.036ZM297.591 183.072C297.591 181.728 297.819 180.468 298.275 179.292C298.755 178.116 299.391 177.084 300.183 176.196C300.975 175.308 301.911 174.612 302.991 174.108C304.071 173.604 305.223 173.352 306.447 173.352C307.503 173.352 308.499 173.544 309.435 173.928C310.371 174.288 311.223 174.804 311.991 175.476V174H317.391V192H311.991V190.668C311.223 191.34 310.371 191.856 309.435 192.216C308.499 192.6 307.503 192.792 306.447 192.792C305.223 192.792 304.071 192.54 302.991 192.036C301.911 191.532 300.975 190.836 300.183 189.948C299.391 189.06 298.755 188.028 298.275 186.852C297.819 185.676 297.591 184.416 297.591 183.072ZM319.884 179.04C319.884 177.96 320.1 177.06 320.532 176.34C320.988 175.62 321.564 175.044 322.26 174.612C322.956 174.156 323.724 173.832 324.564 173.64C325.404 173.448 326.208 173.352 326.976 173.352C328.488 173.352 329.808 173.664 330.936 174.288C332.088 174.888 333.036 175.644 333.78 176.556L329.784 179.22C329.448 178.812 329.064 178.476 328.632 178.212C328.224 177.948 327.732 177.816 327.156 177.816C326.748 177.816 326.328 177.912 325.896 178.104C325.488 178.272 325.284 178.572 325.284 179.004C325.284 179.436 325.536 179.784 326.04 180.048C326.544 180.288 327.12 180.528 327.768 180.768C328.512 181.032 329.244 181.32 329.964 181.632C330.708 181.92 331.368 182.304 331.944 182.784C332.544 183.24 333.024 183.804 333.384 184.476C333.744 185.124 333.924 185.94 333.924 186.924C333.924 188.004 333.696 188.916 333.24 189.66C332.808 190.404 332.244 191.004 331.548 191.46C330.852 191.916 330.084 192.24 329.244 192.432C328.404 192.624 327.588 192.72 326.796 192.72C325.164 192.72 323.748 192.384 322.548 191.712C321.348 191.04 320.292 190.2 319.38 189.192L323.34 186.348C323.748 186.828 324.228 187.26 324.78 187.644C325.356 188.028 325.992 188.22 326.688 188.22C327.072 188.22 327.468 188.136 327.876 187.968C328.308 187.776 328.524 187.452 328.524 186.996C328.524 186.516 328.26 186.132 327.732 185.844C327.204 185.556 326.46 185.244 325.5 184.908C324.828 184.644 324.156 184.368 323.484 184.08C322.812 183.792 322.212 183.432 321.684 183C321.156 182.544 320.724 182.004 320.388 181.38C320.052 180.732 319.884 179.952 319.884 179.04Z" fill="white"/>
<path d="M293.34 65.5965V83H286.278V54.8901C286.278 54.313 286.384 53.7815 286.597 53.2956C286.809 52.7792 287.113 52.3388 287.508 51.9743C287.903 51.5795 288.358 51.2758 288.875 51.0632C289.391 50.8506 289.938 50.7443 290.515 50.7443C292.428 50.7443 293.947 51.9743 295.071 54.4345L303.636 73.0226L312.155 54.4345C313.279 51.9743 314.798 50.7443 316.711 50.7443C317.319 50.7443 317.865 50.8506 318.351 51.0632C318.868 51.2758 319.323 51.5795 319.718 51.9743C320.113 52.3388 320.417 52.7792 320.629 53.2956C320.842 53.7815 320.948 54.313 320.948 54.8901V83H313.887V65.5965L306.506 81.4966C306.233 82.104 305.823 82.5748 305.276 82.9089C304.76 83.2126 304.213 83.3645 303.636 83.3645C303.059 83.3645 302.497 83.2126 301.95 82.9089C301.434 82.6052 301.024 82.1344 300.72 81.4966L293.34 65.5965ZM347.433 51.1087V57.487H332.581V63.7741H344.882V70.1524H332.581V76.6217H347.433V83H330.075C327.038 83 325.519 81.4814 325.519 78.4441V55.6646C325.519 52.6274 327.038 51.1087 330.075 51.1087H347.433ZM379.89 64.093C381.165 64.093 382.122 64.4271 382.76 65.0953C383.428 65.7635 383.762 66.7203 383.762 67.9655C383.762 70.1524 383.322 72.2177 382.441 74.1616C381.56 76.1054 380.375 77.8063 378.887 79.2642C377.399 80.6917 375.653 81.8307 373.648 82.6811C371.674 83.5011 369.578 83.9112 367.361 83.9112C365.083 83.9112 362.926 83.4708 360.891 82.59C358.856 81.6788 357.08 80.4639 355.561 78.9453C354.042 77.4266 352.843 75.6346 351.962 73.5693C351.081 71.504 350.641 69.3171 350.641 67.0088C350.641 64.7005 351.081 62.5288 351.962 60.4939C352.843 58.4589 354.042 56.6821 355.561 55.1635C357.11 53.6145 358.902 52.3996 360.937 51.5188C362.972 50.638 365.144 50.1975 367.452 50.1975C369.882 50.1975 372.144 50.6835 374.24 51.6554C376.366 52.6274 378.204 53.9486 379.753 55.6191L374.195 60.2661C373.314 59.4156 372.296 58.7474 371.142 58.2615C370.018 57.7755 368.788 57.5325 367.452 57.5325C366.146 57.5325 364.916 57.7907 363.762 58.307C362.607 58.793 361.59 59.4612 360.709 60.3116C359.859 61.1621 359.175 62.1644 358.659 63.3185C358.173 64.4727 357.93 65.7028 357.93 67.0088C357.93 68.3148 358.173 69.5601 358.659 70.7446C359.175 71.8988 359.859 72.9163 360.709 73.7971C361.59 74.6475 362.607 75.3309 363.762 75.8472C364.916 76.3332 366.146 76.5762 367.452 76.5762C368.454 76.5762 369.411 76.4243 370.322 76.1206C371.264 75.8169 372.114 75.3917 372.873 74.8449C373.663 74.2982 374.347 73.6604 374.924 72.9315C375.531 72.1722 376.017 71.3521 376.381 70.4713H368.636V64.093H379.89ZM395.721 71.5647H403.603L399.685 61.9518L395.721 71.5647ZM395.63 54.2979C395.812 53.8423 396.025 53.4019 396.268 52.9766C396.511 52.5514 396.784 52.1718 397.088 51.8377C397.422 51.5036 397.786 51.2454 398.181 51.0632C398.606 50.8506 399.107 50.7443 399.685 50.7443C400.262 50.7443 400.748 50.8506 401.142 51.0632C401.568 51.2454 401.932 51.5036 402.236 51.8377C402.57 52.1718 402.843 52.5514 403.056 52.9766C403.299 53.4019 403.511 53.8423 403.694 54.2979L416.131 83H408.295L406.245 77.943H393.124L391.028 83H383.192L395.63 54.2979ZM419.033 59.8105C419.033 57.9881 419.367 56.4695 420.036 55.2546C420.734 54.0397 421.615 53.0526 422.678 52.2933C423.771 51.5339 424.956 51.0024 426.232 50.6987C427.538 50.3646 428.783 50.1975 429.967 50.1975C432.245 50.1975 434.235 50.6835 435.936 51.6554C437.667 52.597 439.094 53.7967 440.218 55.2546L434.842 59.1727C434.295 58.5348 433.597 57.9729 432.746 57.487C431.926 57.001 430.985 56.758 429.922 56.758C429.497 56.758 429.056 56.8036 428.601 56.8947C428.145 56.9858 427.735 57.1529 427.37 57.3959C427.006 57.6085 426.702 57.897 426.459 58.2615C426.216 58.626 426.095 59.0664 426.095 59.5827C426.095 60.1294 426.232 60.6154 426.505 61.0406C426.809 61.4354 427.219 61.8151 427.735 62.1796C428.251 62.5137 428.859 62.8326 429.557 63.1363C430.286 63.44 431.091 63.7589 431.972 64.093C432.853 64.4575 433.794 64.8827 434.797 65.3687C435.829 65.8243 436.771 66.4317 437.621 67.191C438.502 67.92 439.231 68.8463 439.808 69.9701C440.385 71.0939 440.674 72.4911 440.674 74.1616C440.674 75.9839 440.324 77.5177 439.626 78.763C438.927 80.0083 438.031 81.0106 436.938 81.7699C435.844 82.5292 434.645 83.0759 433.339 83.41C432.033 83.7441 430.757 83.9112 429.512 83.9112C427.052 83.9112 424.925 83.3797 423.134 82.3166C421.342 81.2536 419.762 79.902 418.395 78.2619L423.771 74.3438C424.379 75.1335 425.184 75.8321 426.186 76.4395C427.188 77.047 428.327 77.3507 429.603 77.3507C430.058 77.3507 430.514 77.3051 430.97 77.214C431.456 77.0925 431.896 76.9255 432.291 76.7129C432.686 76.4699 433.005 76.1662 433.248 75.8017C433.491 75.4068 433.612 74.9361 433.612 74.3894C433.612 73.7819 433.46 73.2656 433.156 72.8404C432.853 72.3848 432.443 71.9747 431.926 71.6103C431.41 71.2458 430.787 70.9117 430.058 70.608C429.36 70.2739 428.616 69.955 427.826 69.6512C426.854 69.2564 425.837 68.8312 424.774 68.3756C423.741 67.8896 422.799 67.2822 421.949 66.5532C421.099 65.8243 420.4 64.9283 419.853 63.8652C419.307 62.7718 419.033 61.4202 419.033 59.8105ZM298.123 124.788V132.077H292.656V124.788H285.367V119.321H292.656V112.031H298.123V119.321H305.413V124.788H298.123ZM329.34 126.565H337.222L333.304 116.952L329.34 126.565ZM329.249 109.298C329.431 108.842 329.644 108.402 329.887 107.977C330.13 107.551 330.403 107.172 330.707 106.838C331.041 106.504 331.405 106.245 331.8 106.063C332.225 105.851 332.727 105.744 333.304 105.744C333.881 105.744 334.367 105.851 334.762 106.063C335.187 106.245 335.551 106.504 335.855 106.838C336.189 107.172 336.462 107.551 336.675 107.977C336.918 108.402 337.131 108.842 337.313 109.298L349.75 138H341.914L339.864 132.943H326.743L324.647 138H316.811L329.249 109.298ZM371.286 126.656C371.286 125.836 371.119 125.046 370.785 124.287C370.481 123.527 370.056 122.859 369.509 122.282C368.962 121.705 368.309 121.249 367.55 120.915C366.821 120.581 366.047 120.414 365.227 120.414C364.407 120.414 363.617 120.581 362.858 120.915C362.129 121.249 361.491 121.705 360.944 122.282C360.397 122.859 359.957 123.527 359.623 124.287C359.319 125.046 359.167 125.836 359.167 126.656C359.167 127.506 359.319 128.326 359.623 129.116C359.957 129.875 360.397 130.544 360.944 131.121C361.491 131.698 362.129 132.153 362.858 132.487C363.617 132.821 364.407 132.989 365.227 132.989C366.047 132.989 366.821 132.821 367.55 132.487C368.309 132.153 368.962 131.698 369.509 131.121C370.056 130.544 370.481 129.875 370.785 129.116C371.119 128.326 371.286 127.506 371.286 126.656ZM377.755 126.701C377.755 128.402 377.452 129.997 376.844 131.485C376.267 132.973 375.477 134.279 374.475 135.403C373.473 136.527 372.288 137.408 370.922 138.046C369.555 138.683 368.097 139.002 366.548 139.002C365.211 139.002 363.951 138.759 362.766 138.273C361.582 137.818 360.504 137.165 359.532 136.314V147.112H352.698V115.221H359.532V117.088C360.504 116.238 361.582 115.585 362.766 115.129C363.951 114.643 365.211 114.4 366.548 114.4C368.097 114.4 369.555 114.719 370.922 115.357C372.288 115.995 373.473 116.876 374.475 118C375.477 119.123 376.267 120.429 376.844 121.918C377.452 123.406 377.755 125.001 377.755 126.701ZM399.315 126.656C399.315 125.836 399.148 125.046 398.814 124.287C398.511 123.527 398.085 122.859 397.539 122.282C396.992 121.705 396.339 121.249 395.58 120.915C394.851 120.581 394.076 120.414 393.256 120.414C392.436 120.414 391.646 120.581 390.887 120.915C390.158 121.249 389.52 121.705 388.974 122.282C388.427 122.859 387.986 123.527 387.652 124.287C387.349 125.046 387.197 125.836 387.197 126.656C387.197 127.506 387.349 128.326 387.652 129.116C387.986 129.875 388.427 130.544 388.974 131.121C389.52 131.698 390.158 132.153 390.887 132.487C391.646 132.821 392.436 132.989 393.256 132.989C394.076 132.989 394.851 132.821 395.58 132.487C396.339 132.153 396.992 131.698 397.539 131.121C398.085 130.544 398.511 129.875 398.814 129.116C399.148 128.326 399.315 127.506 399.315 126.656ZM405.785 126.701C405.785 128.402 405.481 129.997 404.874 131.485C404.297 132.973 403.507 134.279 402.505 135.403C401.502 136.527 400.318 137.408 398.951 138.046C397.584 138.683 396.126 139.002 394.577 139.002C393.241 139.002 391.98 138.759 390.796 138.273C389.611 137.818 388.533 137.165 387.561 136.314V147.112H380.727V115.221H387.561V117.088C388.533 116.238 389.611 115.585 390.796 115.129C391.98 114.643 393.241 114.4 394.577 114.4C396.126 114.4 397.584 114.719 398.951 115.357C400.318 115.995 401.502 116.876 402.505 118C403.507 119.123 404.297 120.429 404.874 121.918C405.481 123.406 405.785 125.001 405.785 126.701Z" fill="white"/>
</svg>
